<svg width="636" height="74" viewBox="0 0 636 74" fill="none" xmlns="http://www.w3.org/2000/svg">
<path d="M19.1719 8.37695C17.1211 8.37695 14.9727 8.40951 12.7266 8.47461C10.4805 8.50716 8.59245 8.57227 7.0625 8.66992C7.25781 18.0449 7.35547 26.4759 7.35547 33.9629L42.7559 34.207C43.765 34.207 44.5137 34.5488 45.002 35.2324C45.5228 35.8835 45.7832 36.5996 45.7832 37.3809C45.7832 38.1947 45.5228 38.9271 45.002 39.5781C44.5137 40.2292 43.7487 40.5547 42.707 40.5547L7.30664 40.3105C7.27409 44.64 7.20898 48.5299 7.11133 51.9805C7.01367 55.431 6.89974 58.4421 6.76953 61.0137L6.52539 65.7012C17.2025 65.6686 25.9102 65.5872 32.6484 65.457C39.4193 65.2943 44.2533 65.099 47.1504 64.8711C48.127 64.7734 48.8757 65.099 49.3965 65.8477C49.9173 66.5638 50.1777 67.3125 50.1777 68.0938C50.1777 68.8424 49.9499 69.5423 49.4941 70.1934C49.0384 70.8118 48.3385 71.1536 47.3945 71.2188C44.2044 71.5117 38.9147 71.7233 31.5254 71.8535C24.1686 71.9837 14.7285 72.0488 3.20508 72.0488C2.39128 72.0488 1.65885 71.7233 1.00781 71.0723C0.356771 70.4212 0.03125 69.64 0.03125 68.7285C0.03125 68.3704 0.0638021 67.2637 0.128906 65.4082C0.19401 63.5202 0.275391 61.1764 0.373047 58.377C0.470703 55.5775 0.568359 52.6152 0.666016 49.4902C0.763672 46.3327 0.845052 43.2891 0.910156 40.3594C0.97526 37.3971 1.00781 34.8255 1.00781 32.6445C1.00781 28.5755 0.942708 24.2949 0.8125 19.8027C0.714844 15.278 0.666016 10.5579 0.666016 5.64258C0.666016 4.82878 0.958984 4.11263 1.54492 3.49414C2.16341 2.87565 2.86328 2.55013 3.64453 2.51758L7.16016 2.27344C9.95964 2.11068 12.8568 2.01302 15.8516 1.98047C18.8464 1.94792 21.9388 1.98047 25.1289 2.07812C37.6615 2.46875 46.5482 3.83594 51.7891 6.17969C53.026 6.73307 53.6283 7.75846 53.5957 9.25586C53.5957 10.0697 53.319 10.7858 52.7656 11.4043C52.2448 11.9902 51.5286 12.2832 50.6172 12.2832C50.1615 12.2832 49.6895 12.1693 49.2012 11.9414C43.7975 9.5651 33.7878 8.37695 19.1719 8.37695ZM68.3906 0.271484C69.2044 0.271484 69.9206 0.613281 70.5391 1.29688C71.1901 1.94792 71.4831 2.71289 71.418 3.5918C70.8646 17.1009 70.4414 28.543 70.1484 37.918C69.8555 47.293 69.709 54.6172 69.709 59.8906C69.709 64.4805 69.8229 67.5078 70.0508 68.9727C70.0833 69.168 70.0996 69.347 70.0996 69.5098C70.0996 70.4863 69.7578 71.235 69.0742 71.7559C68.3906 72.2767 67.6419 72.5371 66.8281 72.5371C66.1445 72.5371 65.4935 72.3255 64.875 71.9023C64.2891 71.4792 63.931 70.8118 63.8008 69.9004C63.5404 68.2402 63.4102 64.8385 63.4102 59.6953C63.4102 48.7578 63.9798 29.959 65.1191 3.29883C65.1517 2.45247 65.4935 1.73633 66.1445 1.15039C66.8281 0.564453 67.5768 0.271484 68.3906 0.271484ZM92.9023 0.271484C93.7161 0.271484 94.4323 0.613281 95.0508 1.29688C95.7018 1.94792 95.9948 2.71289 95.9297 3.5918C95.3763 17.1009 94.9531 28.543 94.6602 37.918C94.3672 47.293 94.2207 54.6172 94.2207 59.8906C94.2207 64.4805 94.3346 67.5078 94.5625 68.9727C94.5951 69.168 94.6113 69.347 94.6113 69.5098C94.6113 70.4863 94.2695 71.235 93.5859 71.7559C92.9023 72.2767 92.1536 72.5371 91.3398 72.5371C90.6562 72.5371 90.0052 72.3255 89.3867 71.9023C88.8008 71.4792 88.4427 70.8118 88.3125 69.9004C88.0521 68.2402 87.9219 64.8385 87.9219 59.6953C87.9219 48.7578 88.4915 29.959 89.6309 3.29883C89.6634 2.45247 90.0052 1.73633 90.6562 1.15039C91.3398 0.564453 92.0885 0.271484 92.9023 0.271484ZM148.908 38.0645C149.006 38.4225 149.055 38.7969 149.055 39.1875C149.055 39.9362 148.908 40.7988 148.615 41.7754C148.127 46.9186 147.883 51.5085 147.883 55.5449C147.883 61.1764 148.355 65.75 149.299 69.2656C149.396 69.5911 149.445 69.9004 149.445 70.1934C149.445 71.1048 149.087 71.821 148.371 72.3418C147.688 72.8952 146.939 73.1719 146.125 73.1719C145.507 73.1719 144.921 72.9928 144.367 72.6348C143.814 72.2767 143.423 71.6908 143.195 70.877C142.186 67.1335 141.649 62.3809 141.584 56.6191C138.492 61.5996 135.171 65.5221 131.623 68.3867C129.475 70.112 127.261 71.0885 124.982 71.3164C123.615 71.707 122.281 71.9023 120.979 71.9023C119.123 71.9023 117.43 71.5605 115.9 70.877C114.37 70.1934 113.052 69.3307 111.945 68.2891C109.96 66.4336 108.413 64.041 107.307 61.1113C106.232 58.1491 105.695 54.7311 105.695 50.8574C105.695 45.877 106.851 41.1243 109.162 36.5996C112.548 29.959 117.691 25.5319 124.592 23.3184C127.229 22.4395 129.768 22 132.209 22C135.269 22 138.15 22.7161 140.852 24.1484C145.572 26.6549 148.257 31.2936 148.908 38.0645ZM142.561 38.5039C142.268 35.3789 141.242 32.9049 139.484 31.082C137.759 29.2591 135.399 28.3477 132.404 28.3477C130.614 28.3477 128.661 28.6895 126.545 29.373C121.304 31.0332 117.479 34.2396 115.07 38.9922C113.052 42.9961 112.043 46.9837 112.043 50.9551C112.043 53.7546 112.417 56.2611 113.166 58.4746C113.915 60.6882 114.875 62.3483 116.047 63.4551C117.512 64.8223 119.172 65.5059 121.027 65.5059C121.646 65.5059 122.232 65.4408 122.785 65.3105C123.371 65.1478 124.022 65.0339 124.738 64.9688C125.292 64.9036 126.382 64.2363 128.01 62.9668C129.637 61.6647 131.363 59.8255 133.186 57.4492C135.041 55.0729 136.783 52.4036 138.41 49.4414C140.038 46.4792 141.356 43.5007 142.365 40.5059C142.398 40.1803 142.43 39.8548 142.463 39.5293C142.495 39.1712 142.528 38.8294 142.561 38.5039ZM163.752 2.0293C166.161 2.0293 167.805 2.95703 168.684 4.8125C169.595 6.63542 170.051 8.89779 170.051 11.5996C170.051 13.4225 169.872 15.3919 169.514 17.5078C169.188 19.6237 168.749 21.5768 168.195 23.3672C167.674 25.125 167.137 26.4434 166.584 27.3223C165.77 28.5592 164.794 29.1777 163.654 29.1777C162.222 29.1777 161.506 28.4453 161.506 26.9805C161.506 26.0365 161.734 24.9134 162.189 23.6113C162.645 22.3092 162.873 21.1048 162.873 19.998C162.873 17.7194 162.189 15.2617 160.822 12.625C159.748 10.5417 159.211 8.70247 159.211 7.10742C159.211 5.77279 159.585 4.60091 160.334 3.5918C161.115 2.55013 162.255 2.0293 163.752 2.0293ZM179.816 36.2578C179.816 33.2305 180.614 30.6914 182.209 28.6406C183.804 26.5573 185.871 24.9948 188.41 23.9531C190.949 22.9115 193.651 22.3906 196.516 22.3906C205.826 22.3906 213.589 25.3529 219.807 31.2773C220.458 31.8958 220.783 32.6283 220.783 33.4746C220.783 34.2884 220.49 35.0208 219.904 35.6719C219.351 36.3229 218.618 36.6647 217.707 36.6973C216.796 36.6973 216.047 36.4206 215.461 35.8672C213.605 34.0768 211.099 32.4492 207.941 30.9844C204.816 29.487 201.626 28.7383 198.371 28.7383C191.665 28.7383 187.71 30.5612 186.506 34.207C186.245 34.9883 186.115 35.737 186.115 36.4531C186.115 38.4062 187.027 40.2129 188.85 41.873C190.868 43.7285 194.253 44.6562 199.006 44.6562C199.787 44.6562 200.617 44.6237 201.496 44.5586C202.375 44.4935 203.254 44.4609 204.133 44.4609C208.332 44.4609 211.734 45.0957 214.338 46.3652C216.942 47.6022 218.928 49.5879 220.295 52.3223C221.174 54.1452 221.613 55.9193 221.613 57.6445C221.613 58.4258 221.532 59.207 221.369 59.9883C220.295 64.7409 217.349 68.2077 212.531 70.3887C209.504 71.7884 206.298 72.4883 202.912 72.4883C202.229 72.4883 201.529 72.4557 200.812 72.3906C193.098 71.6745 186.685 69.0703 181.574 64.5781C180.858 63.9596 180.5 63.1621 180.5 62.1855C180.5 61.3066 180.809 60.5742 181.428 59.9883C182.079 59.3698 182.827 59.0605 183.674 59.0605C184.488 59.0605 185.188 59.3047 185.773 59.793C188.052 61.7786 190.591 63.3249 193.391 64.4316C196.19 65.5384 199.396 66.0918 203.01 66.0918C207.535 66.0918 210.985 64.7897 213.361 62.1855C214.663 60.7533 215.314 59.2884 215.314 57.791C215.314 56.9121 215.087 56.0169 214.631 55.1055C213.231 52.2409 210.269 50.8086 205.744 50.8086C204.768 50.8086 203.758 50.8411 202.717 50.9062C201.675 50.9388 200.731 50.9551 199.885 50.9551C196.011 50.9551 193.146 50.7109 191.291 50.2227C188.719 49.5391 186.441 48.2858 184.455 46.4629C182.469 44.64 181.102 42.459 180.354 39.9199C179.995 38.7155 179.816 37.4948 179.816 36.2578ZM258.674 67.459C258.674 65.1478 258.837 62.4948 259.162 59.5C259.52 56.5052 259.699 53.7708 259.699 51.2969C259.699 51.1667 259.699 51.0365 259.699 50.9062C259.699 48.8229 259.813 47.4557 260.041 46.8047C260.139 43.9076 260.22 39.9525 260.285 34.9395C260.383 29.9264 260.48 23.8555 260.578 16.7266L260.725 4.76367C260.725 3.88477 261.034 3.15234 261.652 2.56641C262.303 1.94792 263.068 1.63867 263.947 1.63867C264.794 1.63867 265.526 1.96419 266.145 2.61523C266.763 3.26628 267.072 4.01497 267.072 4.86133L266.926 16.7754C266.893 20.1608 266.861 23.2207 266.828 25.9551C266.796 28.6569 266.747 31.0169 266.682 33.0352C273.257 26.3945 279.686 22.8789 285.969 22.4883C286.424 22.4557 286.896 22.4395 287.385 22.4395C292.951 22.4395 297.492 24.6367 301.008 29.0312C303.026 31.5703 304.605 34.5163 305.744 37.8691C306.916 41.222 307.502 44.6562 307.502 48.1719C307.502 50.776 307.144 53.3477 306.428 55.8867C305.744 58.4258 304.654 60.8021 303.156 63.0156C301.008 66.1732 298.273 68.6146 294.953 70.3398C291.633 72.0326 287.743 72.8789 283.283 72.8789C276.057 72.8789 270.214 69.2005 265.754 61.8438C265.689 63.2435 265.607 64.513 265.51 65.6523C265.445 66.7917 265.363 67.7845 265.266 68.6309C265.168 69.5098 264.826 70.291 264.24 70.9746C263.687 71.6257 262.987 71.9512 262.141 71.9512C260.904 71.9512 260.008 71.5117 259.455 70.6328C258.934 69.7214 258.674 68.6634 258.674 67.459ZM283.234 66.5312C288.736 66.5312 293.081 64.806 296.271 61.3555C299.494 57.9049 301.105 53.4128 301.105 47.8789C301.105 44.7214 300.536 41.694 299.396 38.7969C298.29 35.8672 296.695 33.4746 294.611 31.6191C292.528 29.7311 290.07 28.7871 287.238 28.7871C287.01 28.7871 286.783 28.7871 286.555 28.7871C280.402 29.2103 273.713 33.8978 266.486 42.8496C266.454 43.5983 266.438 44.347 266.438 45.0957C266.438 45.8444 266.421 46.5768 266.389 47.293C266.649 48.0091 266.991 49.002 267.414 50.2715C271.092 61.1113 276.366 66.5312 283.234 66.5312ZM317.316 12.6738C317.316 11.4694 317.674 10.3138 318.391 9.20703C319.139 8.06771 320.051 7.15625 321.125 6.47266C322.199 5.75651 323.257 5.39844 324.299 5.39844C325.829 5.39844 327.115 6.04948 328.156 7.35156C329.23 8.62109 329.768 9.89062 329.768 11.1602C329.768 12.3646 329.393 13.4714 328.645 14.4805C327.896 15.4896 326.887 16.222 325.617 16.6777C324.185 17.3939 322.915 17.752 321.809 17.752C320.604 17.752 319.546 17.2637 318.635 16.2871C317.756 15.278 317.316 14.0736 317.316 12.6738ZM325.227 64.041C325.129 66.6452 324.771 68.7285 324.152 70.291C323.534 71.821 322.46 72.5859 320.93 72.5859C320.083 72.5859 319.335 72.2767 318.684 71.6582C318.033 71.0397 317.707 70.2747 317.707 69.3633C317.707 68.9401 317.788 68.5169 317.951 68.0938C318.244 67.4102 318.472 66.0592 318.635 64.041C318.83 61.9902 318.977 59.5814 319.074 56.8145C319.172 54.0475 319.237 51.1992 319.27 48.2695C319.335 45.3073 319.367 42.5566 319.367 40.0176C319.367 37.4785 319.367 35.4603 319.367 33.9629C319.367 31.196 319.351 28.543 319.318 26.0039C319.318 24.9622 319.644 24.181 320.295 23.6602C320.979 23.1393 321.727 22.8789 322.541 22.8789C323.322 22.8789 324.022 23.1393 324.641 23.6602C325.292 24.1484 325.617 24.8971 325.617 25.9062C325.65 27.6315 325.666 29.3242 325.666 30.9844C325.699 32.6445 325.715 34.2721 325.715 35.8672C325.715 41.1732 325.682 45.9746 325.617 50.2715C325.585 54.5684 325.454 59.1582 325.227 64.041ZM339.533 67.459C339.533 65.1478 339.696 62.4948 340.021 59.5C340.38 56.5052 340.559 53.7708 340.559 51.2969C340.559 51.1667 340.559 51.0365 340.559 50.9062C340.559 48.8229 340.673 47.4557 340.9 46.8047C340.998 43.9076 341.079 39.9525 341.145 34.9395C341.242 29.9264 341.34 23.8555 341.438 16.7266L341.584 4.76367C341.584 3.88477 341.893 3.15234 342.512 2.56641C343.163 1.94792 343.928 1.63867 344.807 1.63867C345.653 1.63867 346.385 1.96419 347.004 2.61523C347.622 3.26628 347.932 4.01497 347.932 4.86133L347.785 16.7754C347.753 20.1608 347.72 23.2207 347.688 25.9551C347.655 28.6569 347.606 31.0169 347.541 33.0352C354.117 26.3945 360.546 22.8789 366.828 22.4883C367.284 22.4557 367.756 22.4395 368.244 22.4395C373.811 22.4395 378.352 24.6367 381.867 29.0312C383.885 31.5703 385.464 34.5163 386.604 37.8691C387.775 41.222 388.361 44.6562 388.361 48.1719C388.361 50.776 388.003 53.3477 387.287 55.8867C386.604 58.4258 385.513 60.8021 384.016 63.0156C381.867 66.1732 379.133 68.6146 375.812 70.3398C372.492 72.0326 368.602 72.8789 364.143 72.8789C356.916 72.8789 351.073 69.2005 346.613 61.8438C346.548 63.2435 346.467 64.513 346.369 65.6523C346.304 66.7917 346.223 67.7845 346.125 68.6309C346.027 69.5098 345.686 70.291 345.1 70.9746C344.546 71.6257 343.846 71.9512 343 71.9512C341.763 71.9512 340.868 71.5117 340.314 70.6328C339.794 69.7214 339.533 68.6634 339.533 67.459ZM364.094 66.5312C369.595 66.5312 373.941 64.806 377.131 61.3555C380.354 57.9049 381.965 53.4128 381.965 47.8789C381.965 44.7214 381.395 41.694 380.256 38.7969C379.149 35.8672 377.554 33.4746 375.471 31.6191C373.387 29.7311 370.93 28.7871 368.098 28.7871C367.87 28.7871 367.642 28.7871 367.414 28.7871C361.262 29.2103 354.572 33.8978 347.346 42.8496C347.313 43.5983 347.297 44.347 347.297 45.0957C347.297 45.8444 347.281 46.5768 347.248 47.293C347.508 48.0091 347.85 49.002 348.273 50.2715C351.952 61.1113 357.225 66.5312 364.094 66.5312ZM403.156 0.271484C403.97 0.271484 404.686 0.613281 405.305 1.29688C405.956 1.94792 406.249 2.71289 406.184 3.5918C405.63 17.1009 405.207 28.543 404.914 37.918C404.621 47.293 404.475 54.6172 404.475 59.8906C404.475 64.4805 404.589 67.5078 404.816 68.9727C404.849 69.168 404.865 69.347 404.865 69.5098C404.865 70.4863 404.523 71.235 403.84 71.7559C403.156 72.2767 402.408 72.5371 401.594 72.5371C400.91 72.5371 400.259 72.3255 399.641 71.9023C399.055 71.4792 398.697 70.8118 398.566 69.9004C398.306 68.2402 398.176 64.8385 398.176 59.6953C398.176 48.7578 398.745 29.959 399.885 3.29883C399.917 2.45247 400.259 1.73633 400.91 1.15039C401.594 0.564453 402.342 0.271484 403.156 0.271484ZM415.949 12.6738C415.949 11.4694 416.307 10.3138 417.023 9.20703C417.772 8.06771 418.684 7.15625 419.758 6.47266C420.832 5.75651 421.89 5.39844 422.932 5.39844C424.462 5.39844 425.747 6.04948 426.789 7.35156C427.863 8.62109 428.4 9.89062 428.4 11.1602C428.4 12.3646 428.026 13.4714 427.277 14.4805C426.529 15.4896 425.52 16.222 424.25 16.6777C422.818 17.3939 421.548 17.752 420.441 17.752C419.237 17.752 418.179 17.2637 417.268 16.2871C416.389 15.278 415.949 14.0736 415.949 12.6738ZM423.859 64.041C423.762 66.6452 423.404 68.7285 422.785 70.291C422.167 71.821 421.092 72.5859 419.562 72.5859C418.716 72.5859 417.967 72.2767 417.316 71.6582C416.665 71.0397 416.34 70.2747 416.34 69.3633C416.34 68.9401 416.421 68.5169 416.584 68.0938C416.877 67.4102 417.105 66.0592 417.268 64.041C417.463 61.9902 417.609 59.5814 417.707 56.8145C417.805 54.0475 417.87 51.1992 417.902 48.2695C417.967 45.3073 418 42.5566 418 40.0176C418 37.4785 418 35.4603 418 33.9629C418 31.196 417.984 28.543 417.951 26.0039C417.951 24.9622 418.277 24.181 418.928 23.6602C419.611 23.1393 420.36 22.8789 421.174 22.8789C421.955 22.8789 422.655 23.1393 423.273 23.6602C423.924 24.1484 424.25 24.8971 424.25 25.9062C424.283 27.6315 424.299 29.3242 424.299 30.9844C424.331 32.6445 424.348 34.2721 424.348 35.8672C424.348 41.1732 424.315 45.9746 424.25 50.2715C424.217 54.5684 424.087 59.1582 423.859 64.041ZM463.264 21.3652C471.369 21.8535 478.01 25.8574 483.186 33.377C484.585 35.3952 485.66 37.6413 486.408 40.1152C487.157 42.5566 487.531 45.2747 487.531 48.2695C487.531 52.7292 486.473 56.7331 484.357 60.2812C482.242 63.7969 479.686 66.515 476.691 68.4355C474.771 69.6725 472.606 70.6654 470.197 71.4141C467.788 72.1302 465.298 72.4883 462.727 72.4883C457.941 72.4883 453.856 71.4466 450.471 69.3633C447.118 67.2474 444.416 64.627 442.365 61.502C439.598 57.2051 438.215 52.599 438.215 47.6836C438.215 46.3815 438.312 45.0632 438.508 43.7285C439.419 37.2507 442.137 31.9447 446.662 27.8105C451.219 23.6439 456.363 21.4466 462.092 21.2188C462.482 21.1536 462.873 21.2025 463.264 21.3652ZM481.135 47.9277C481.135 44.1517 480.256 40.7826 478.498 37.8203C476.74 34.8255 474.462 32.4492 471.662 30.6914C468.895 28.901 465.982 27.9082 462.922 27.7129C462.661 27.7129 462.401 27.6641 462.141 27.5664C458.82 27.7617 455.826 28.7871 453.156 30.6426C450.487 32.4655 448.371 34.8743 446.809 37.8691C445.279 40.8314 444.514 44.1354 444.514 47.7812C444.514 50.5807 445.051 53.1198 446.125 55.3984C447.232 57.6771 448.648 59.6302 450.373 61.2578C452.131 62.8529 453.954 64.041 455.842 64.8223C458.12 65.7337 460.464 66.1895 462.873 66.1895C466.226 66.1895 469.27 65.4082 472.004 63.8457C474.771 62.2507 476.87 60.3301 478.303 58.084C479.247 56.5866 479.947 54.9753 480.402 53.25C480.891 51.4922 481.135 49.7181 481.135 47.9277ZM522.834 70.4375C522.834 71.3164 522.508 72.0651 521.857 72.6836C521.206 73.3021 520.458 73.6113 519.611 73.6113C519.09 73.6113 518.602 73.4811 518.146 73.2207C513.947 70.9746 511.408 64.8385 510.529 54.8125C510.334 52.6315 510.188 50.2878 510.09 47.7812C509.992 45.2422 509.943 42.5241 509.943 39.627C509.943 36.8275 509.992 33.7676 510.09 30.4473C508.495 30.4473 506.9 30.4473 505.305 30.4473C503.71 30.4147 502.098 30.3984 500.471 30.3984C499.624 30.3984 498.876 30.0729 498.225 29.4219C497.606 28.7383 497.297 27.9733 497.297 27.127C497.297 26.3457 497.606 25.6458 498.225 25.0273C498.876 24.3763 499.624 24.0508 500.471 24.0508L510.285 24.0996C510.318 23.123 510.367 21.6257 510.432 19.6074C510.497 17.5892 510.562 15.4408 510.627 13.1621C510.692 10.8835 510.725 8.88151 510.725 7.15625C510.725 6.63542 510.708 6.16341 510.676 5.74023C510.676 5.31706 510.676 4.92643 510.676 4.56836C510.676 3.5918 511.001 2.8431 511.652 2.32227C512.336 1.80143 513.068 1.54102 513.85 1.54102C514.631 1.54102 515.347 1.78516 515.998 2.27344C516.649 2.76172 516.991 3.51042 517.023 4.51953C517.056 5.17057 517.072 6.00065 517.072 7.00977C517.072 8.80013 517.04 10.8346 516.975 13.1133C516.91 15.3919 516.844 17.5566 516.779 19.6074C516.714 21.6257 516.665 23.1393 516.633 24.1484L524.006 24.1973C525.015 24.1973 525.78 24.5391 526.301 25.2227C526.822 25.9062 527.082 26.6387 527.082 27.4199C527.082 28.2012 526.822 28.9173 526.301 29.5684C525.812 30.2194 525.064 30.5449 524.055 30.5449C524.022 30.5449 524.006 30.5449 524.006 30.5449C522.736 30.5449 521.467 30.5449 520.197 30.5449C518.96 30.5124 517.707 30.4961 516.438 30.4961C516.372 33.4258 516.34 36.1927 516.34 38.7969C516.34 50.5807 517.137 58.8652 518.732 63.6504C519.481 65.8314 520.262 67.1335 521.076 67.5566C521.564 67.8171 521.971 68.2077 522.297 68.7285C522.655 69.2493 522.834 69.819 522.834 70.4375ZM543.879 55.4473C544.823 58.8327 546.646 61.4857 549.348 63.4062C552.082 65.3268 555.516 66.2871 559.65 66.2871C565.184 66.2871 571.613 64.4805 578.938 60.8672C579.393 60.6393 579.865 60.5254 580.354 60.5254C581.2 60.5254 581.932 60.8184 582.551 61.4043C583.202 61.9902 583.527 62.7227 583.527 63.6016C583.527 65.0013 582.941 65.9941 581.77 66.5801C578.059 68.403 574.283 69.8678 570.441 70.9746C566.6 72.0814 562.889 72.6348 559.309 72.6348C555.63 72.6348 552.196 71.9512 549.006 70.584C545.848 69.2168 543.146 66.9382 540.9 63.748C539.631 61.9577 538.654 60.0534 537.971 58.0352C537.287 56.0169 536.945 53.7546 536.945 51.248C536.945 50.1413 537.01 48.9857 537.141 47.7812C537.889 41.5638 540.477 36.2415 544.904 31.8145C550.633 26.0853 558.169 23.2207 567.512 23.2207C571.092 23.2207 574.234 23.9206 576.936 25.3203C579.637 26.6875 581.558 28.6406 582.697 31.1797C583.316 32.5794 583.625 34.0605 583.625 35.623C583.625 38.2923 582.925 40.6523 581.525 42.7031C580.158 44.7214 578.205 46.5931 575.666 48.3184C568.537 53.1361 558.202 55.5449 544.66 55.5449C544.465 55.5449 544.204 55.5124 543.879 55.4473ZM543.342 49.4902C543.798 49.2949 544.237 49.1973 544.66 49.1973C556.932 49.1973 566.096 47.1465 572.15 43.0449C573.843 41.9056 575.129 40.75 576.008 39.5781C576.887 38.3737 577.326 36.9902 577.326 35.4277C577.326 34.5163 577.115 33.7839 576.691 33.2305C576.301 32.6771 575.78 32.1562 575.129 31.668C573.306 30.2682 570.783 29.5684 567.561 29.5684C563.231 29.5684 559.292 30.3822 555.744 32.0098C552.196 33.6048 549.315 35.8997 547.102 38.8945C544.921 41.8568 543.667 45.3887 543.342 49.4902ZM632.795 72.3906C632.079 72.3906 631.363 72.0977 630.646 71.5117C629.963 70.9258 629.621 70.3073 629.621 69.6562C629.621 68.0286 628.189 66.0755 625.324 63.7969C619.074 58.8815 610.936 54.2428 600.91 49.8809C600.585 49.7507 600.227 49.5228 599.836 49.1973C599.738 53.2988 599.689 56.8633 599.689 59.8906C599.689 64.7083 599.803 67.8822 600.031 69.4121C600.064 69.6074 600.08 69.7865 600.08 69.9492C600.08 70.9258 599.738 71.6745 599.055 72.1953C598.371 72.7161 597.622 72.9766 596.809 72.9766C596.125 72.9766 595.474 72.765 594.855 72.3418C594.27 71.9186 593.911 71.2513 593.781 70.3398C593.521 68.6797 593.391 65.278 593.391 60.1348C593.391 49.1973 593.96 30.3984 595.1 3.73828C595.132 2.76172 595.474 2.0293 596.125 1.54102C596.776 1.05273 597.492 0.808594 598.273 0.808594C599.055 0.808594 599.771 1.06901 600.422 1.58984C601.073 2.07812 601.398 2.81055 601.398 3.78711C601.398 3.85221 601.398 3.93359 601.398 4.03125C601.04 12.3646 600.747 19.9329 600.52 26.7363C600.292 33.5072 600.113 39.4967 599.982 44.7051C600.08 44.64 600.243 44.526 600.471 44.3633C600.731 44.168 601.057 43.9564 601.447 43.7285C607.339 40.3431 611.945 37.0391 615.266 33.8164C618.651 30.5286 620.344 28.1035 620.344 26.541C620.344 25.6947 620.653 24.9622 621.271 24.3438C621.923 23.6927 622.671 23.3672 623.518 23.3672C624.559 23.3672 625.34 23.7253 625.861 24.4414C626.415 25.1576 626.691 26.1016 626.691 27.2734C626.691 30.1055 624.527 33.6374 620.197 37.8691C618.049 39.9525 616.112 41.6126 614.387 42.8496C612.694 44.054 610.871 45.291 608.918 46.5605C616.828 50.3366 623.339 54.2266 628.449 58.2305C633.462 62.1693 635.969 65.8314 635.969 69.2168C635.969 70.0632 635.643 70.8118 634.992 71.4629C634.374 72.0814 633.641 72.3906 632.795 72.3906Z" fill="#F5A525"/>
</svg>
