<svg width="24" height="24" viewBox="0 0 24 24" fill="none" xmlns="http://www.w3.org/2000/svg">
<path d="M0 12C0 5.37258 5.37258 0 12 0V0C18.6274 0 24 5.37258 24 12V12C24 18.6274 18.6274 24 12 24V24C5.37258 24 0 18.6274 0 12V12Z" fill="white"/>
<path d="M5.33203 8.36523C5.08594 8.36523 4.82812 8.36914 4.55859 8.37695C4.28906 8.38086 4.0625 8.38867 3.87891 8.40039C3.90234 9.52539 3.91406 10.5371 3.91406 11.4355L8.16211 11.4648C8.2832 11.4648 8.37305 11.5059 8.43164 11.5879C8.49414 11.666 8.52539 11.752 8.52539 11.8457C8.52539 11.9434 8.49414 12.0312 8.43164 12.1094C8.37305 12.1875 8.28125 12.2266 8.15625 12.2266L3.9082 12.1973C3.9043 12.7168 3.89648 13.1836 3.88477 13.5977C3.87305 14.0117 3.85938 14.373 3.84375 14.6816L3.81445 15.2441C5.0957 15.2402 6.14062 15.2305 6.94922 15.2148C7.76172 15.1953 8.3418 15.1719 8.68945 15.1445C8.80664 15.1328 8.89648 15.1719 8.95898 15.2617C9.02148 15.3477 9.05273 15.4375 9.05273 15.5312C9.05273 15.6211 9.02539 15.7051 8.9707 15.7832C8.91602 15.8574 8.83203 15.8984 8.71875 15.9062C8.33594 15.9414 7.70117 15.9668 6.81445 15.9824C5.93164 15.998 4.79883 16.0059 3.41602 16.0059C3.31836 16.0059 3.23047 15.9668 3.15234 15.8887C3.07422 15.8105 3.03516 15.7168 3.03516 15.6074C3.03516 15.5645 3.03906 15.4316 3.04688 15.209C3.05469 14.9824 3.06445 14.7012 3.07617 14.3652C3.08789 14.0293 3.09961 13.6738 3.11133 13.2988C3.12305 12.9199 3.13281 12.5547 3.14062 12.2031C3.14844 11.8477 3.15234 11.5391 3.15234 11.2773C3.15234 10.7891 3.14453 10.2754 3.12891 9.73633C3.11719 9.19336 3.11133 8.62695 3.11133 8.03711C3.11133 7.93945 3.14648 7.85352 3.2168 7.7793C3.29102 7.70508 3.375 7.66602 3.46875 7.66211L3.89062 7.63281C4.22656 7.61328 4.57422 7.60156 4.93359 7.59766C5.29297 7.59375 5.66406 7.59766 6.04688 7.60938C7.55078 7.65625 8.61719 7.82031 9.24609 8.10156C9.39453 8.16797 9.4668 8.29102 9.46289 8.4707C9.46289 8.56836 9.42969 8.6543 9.36328 8.72852C9.30078 8.79883 9.21484 8.83398 9.10547 8.83398C9.05078 8.83398 8.99414 8.82031 8.93555 8.79297C8.28711 8.50781 7.08594 8.36523 5.33203 8.36523ZM11.2383 7.39258C11.3359 7.39258 11.4219 7.43359 11.4961 7.51562C11.5742 7.59375 11.6094 7.68555 11.6016 7.79102C11.5352 9.41211 11.4844 10.7852 11.4492 11.9102C11.4141 13.0352 11.3965 13.9141 11.3965 14.5469C11.3965 15.0977 11.4102 15.4609 11.4375 15.6367C11.4414 15.6602 11.4434 15.6816 11.4434 15.7012C11.4434 15.8184 11.4023 15.9082 11.3203 15.9707C11.2383 16.0332 11.1484 16.0645 11.0508 16.0645C10.9688 16.0645 10.8906 16.0391 10.8164 15.9883C10.7461 15.9375 10.7031 15.8574 10.6875 15.748C10.6562 15.5488 10.6406 15.1406 10.6406 14.5234C10.6406 13.2109 10.709 10.9551 10.8457 7.75586C10.8496 7.6543 10.8906 7.56836 10.9688 7.49805C11.0508 7.42773 11.1406 7.39258 11.2383 7.39258ZM14.1797 7.39258C14.2773 7.39258 14.3633 7.43359 14.4375 7.51562C14.5156 7.59375 14.5508 7.68555 14.543 7.79102C14.4766 9.41211 14.4258 10.7852 14.3906 11.9102C14.3555 13.0352 14.3379 13.9141 14.3379 14.5469C14.3379 15.0977 14.3516 15.4609 14.3789 15.6367C14.3828 15.6602 14.3848 15.6816 14.3848 15.7012C14.3848 15.8184 14.3438 15.9082 14.2617 15.9707C14.1797 16.0332 14.0898 16.0645 13.9922 16.0645C13.9102 16.0645 13.832 16.0391 13.7578 15.9883C13.6875 15.9375 13.6445 15.8574 13.6289 15.748C13.5977 15.5488 13.582 15.1406 13.582 14.5234C13.582 13.2109 13.6504 10.9551 13.7871 7.75586C13.791 7.6543 13.832 7.56836 13.9102 7.49805C13.9922 7.42773 14.082 7.39258 14.1797 7.39258ZM20.9004 11.9277C20.9121 11.9707 20.918 12.0156 20.918 12.0625C20.918 12.1523 20.9004 12.2559 20.8652 12.373C20.8066 12.9902 20.7773 13.541 20.7773 14.0254C20.7773 14.7012 20.834 15.25 20.9473 15.6719C20.959 15.7109 20.9648 15.748 20.9648 15.7832C20.9648 15.8926 20.9219 15.9785 20.8359 16.041C20.7539 16.1074 20.6641 16.1406 20.5664 16.1406C20.4922 16.1406 20.4219 16.1191 20.3555 16.0762C20.2891 16.0332 20.2422 15.9629 20.2148 15.8652C20.0938 15.416 20.0293 14.8457 20.0215 14.1543C19.6504 14.752 19.252 15.2227 18.8262 15.5664C18.5684 15.7734 18.3027 15.8906 18.0293 15.918C17.8652 15.9648 17.7051 15.9883 17.5488 15.9883C17.3262 15.9883 17.123 15.9473 16.9395 15.8652C16.7559 15.7832 16.5977 15.6797 16.4648 15.5547C16.2266 15.332 16.041 15.0449 15.9082 14.6934C15.7793 14.3379 15.7148 13.9277 15.7148 13.4629C15.7148 12.8652 15.8535 12.2949 16.1309 11.752C16.5371 10.9551 17.1543 10.4238 17.9824 10.1582C18.2988 10.0527 18.6035 10 18.8965 10C19.2637 10 19.6094 10.0859 19.9336 10.2578C20.5 10.5586 20.8223 11.1152 20.9004 11.9277ZM20.1387 11.9805C20.1035 11.6055 19.9805 11.3086 19.7695 11.0898C19.5625 10.8711 19.2793 10.7617 18.9199 10.7617C18.7051 10.7617 18.4707 10.8027 18.2168 10.8848C17.5879 11.084 17.1289 11.4688 16.8398 12.0391C16.5977 12.5195 16.4766 12.998 16.4766 13.4746C16.4766 13.8105 16.5215 14.1113 16.6113 14.377C16.7012 14.6426 16.8164 14.8418 16.957 14.9746C17.1328 15.1387 17.332 15.2207 17.5547 15.2207C17.6289 15.2207 17.6992 15.2129 17.7656 15.1973C17.8359 15.1777 17.9141 15.1641 18 15.1562C18.0664 15.1484 18.1973 15.0684 18.3926 14.916C18.5879 14.7598 18.7949 14.5391 19.0137 14.2539C19.2363 13.9688 19.4453 13.6484 19.6406 13.293C19.8359 12.9375 19.9941 12.5801 20.1152 12.2207C20.1191 12.1816 20.123 12.1426 20.127 12.1035C20.1309 12.0605 20.1348 12.0195 20.1387 11.9805Z" fill="#F5A525"/>
</svg>
