<svg width="24" height="24" viewBox="0 0 24 24" fill="none" xmlns="http://www.w3.org/2000/svg">
<path d="M0 12C0 5.37258 5.37258 0 12 0V0C18.6274 0 24 5.37258 24 12V12C24 18.6274 18.6274 24 12 24V24C5.37258 24 0 18.6274 0 12V12Z" fill="black"/>
<path d="M5.33203 8.36523C5.08594 8.36523 4.82812 8.36914 4.55859 8.37695C4.28906 8.38086 4.0625 8.38867 3.87891 8.40039C3.90234 9.52539 3.91406 10.5371 3.91406 11.4355L8.16211 11.4648C8.2832 11.4648 8.37305 11.5059 8.43164 11.5879C8.49414 11.666 8.52539 11.752 8.52539 11.8457C8.52539 11.9434 8.49414 12.0312 8.43164 12.1094C8.37305 12.1875 8.28125 12.2266 8.15625 12.2266L3.9082 12.1973C3.9043 12.7168 3.89648 13.1836 3.88477 13.5977C3.87305 14.0117 3.85938 14.373 3.84375 14.6816L3.81445 15.2441C5.0957 15.2402 6.14062 15.2305 6.94922 15.2148C7.76172 15.1953 8.3418 15.1719 8.68945 15.1445C8.80664 15.1328 8.89648 15.1719 8.95898 15.2617C9.02148 15.3477 9.05273 15.4375 9.05273 15.5312C9.05273 15.6211 9.02539 15.7051 8.9707 15.7832C8.91602 15.8574 8.83203 15.8984 8.71875 15.9062C8.33594 15.9414 7.70117 15.9668 6.81445 15.9824C5.93164 15.998 4.79883 16.0059 3.41602 16.0059C3.31836 16.0059 3.23047 15.9668 3.15234 15.8887C3.07422 15.8105 3.03516 15.7168 3.03516 15.6074C3.03516 15.5645 3.03906 15.4316 3.04688 15.209C3.05469 14.9824 3.06445 14.7012 3.07617 14.3652C3.08789 14.0293 3.09961 13.6738 3.11133 13.2988C3.12305 12.9199 3.13281 12.5547 3.14062 12.2031C3.14844 11.8477 3.15234 11.5391 3.15234 11.2773C3.15234 10.7891 3.14453 10.2754 3.12891 9.73633C3.11719 9.19336 3.11133 8.62695 3.11133 8.03711C3.11133 7.93945 3.14648 7.85352 3.2168 7.7793C3.29102 7.70508 3.375 7.66602 3.46875 7.66211L3.89062 7.63281C4.22656 7.61328 4.57422 7.60156 4.93359 7.59766C5.29297 7.59375 5.66406 7.59766 6.04688 7.60938C7.55078 7.65625 8.61719 7.82031 9.24609 8.10156C9.39453 8.16797 9.4668 8.29102 9.46289 8.4707C9.46289 8.56836 9.42969 8.6543 9.36328 8.72852C9.30078 8.79883 9.21484 8.83398 9.10547 8.83398C9.05078 8.83398 8.99414 8.82031 8.93555 8.79297C8.28711 8.50781 7.08594 8.36523 5.33203 8.36523ZM11.2383 7.39258C11.3359 7.39258 11.4219 7.43359 11.4961 7.51562C11.5742 7.59375 11.6094 7.68555 11.6016 7.79102C11.5352 9.41211 11.4844 10.7852 11.4492 11.9102C11.4141 13.0352 11.3965 13.9141 11.3965 14.5469C11.3965 15.0977 11.4102 15.4609 11.4375 15.6367C11.4414 15.6602 11.4434 15.6816 11.4434 15.7012C11.4434 15.8184 11.4023 15.9082 11.3203 15.9707C11.2383 16.0332 11.1484 16.0645 11.0508 16.0645C10.9688 16.0645 10.8906 16.0391 10.8164 15.9883C10.7461 15.9375 10.7031 15.8574 10.6875 15.748C10.6562 15.5488 10.6406 15.1406 10.6406 14.5234C10.6406 13.2109 10.709 10.9551 10.8457 7.75586C10.8496 7.6543 10.8906 7.56836 10.9688 7.49805C11.0508 7.42773 11.1406 7.39258 11.2383 7.39258ZM14.1797 7.39258C14.2773 7.39258 14.3633 7.43359 14.4375 7.51562C14.5156 7.59375 14.5508 7.68555 14.543 7.79102C14.4766 9.41211 14.4258 10.7852 14.3906 11.9102C14.3555 13.0352 14.3379 13.9141 14.3379 14.5469C14.3379 15.0977 14.3516 15.4609 14.3789 15.6367C14.3828 15.6602 14.3848 15.6816 14.3848 15.7012C14.3848 15.8184 14.3438 15.9082 14.2617 15.9707C14.1797 16.0332 14.0898 16.0645 13.9922 16.0645C13.9102 16.0645 13.832 16.0391 13.7578 15.9883C13.6875 15.9375 13.6445 15.8574 13.6289 15.748C13.5977 15.5488 13.582 15.1406 13.582 14.5234C13.582 13.2109 13.6504 10.9551 13.7871 7.75586C13.791 7.6543 13.832 7.56836 13.9102 7.49805C13.9922 7.42773 14.082 7.39258 14.1797 7.39258ZM20.9004 11.9277C20.9121 11.9707 20.918 12.0156 20.918 12.0625C20.918 12.1523 20.9004 12.2559 20.8652 12.373C20.8066 12.9902 20.7773 13.541 20.7773 14.0254C20.7773 14.7012 20.834 15.25 20.9473 15.6719C20.959 15.7109 20.9648 15.748 20.9648 15.7832C20.9648 15.8926 20.9219 15.9785 20.8359 16.041C20.7539 16.1074 20.6641 16.1406 20.5664 16.1406C20.4922 16.1406 20.4219 16.1191 20.3555 16.0762C20.2891 16.0332 20.2422 15.9629 20.2148 15.8652C20.0938 15.416 20.0293 14.8457 20.0215 14.1543C19.6504 14.752 19.252 15.2227 18.8262 15.5664C18.5684 15.7734 18.3027 15.8906 18.0293 15.918C17.8652 15.9648 17.7051 15.9883 17.5488 15.9883C17.3262 15.9883 17.123 15.9473 16.9395 15.8652C16.7559 15.7832 16.5977 15.6797 16.4648 15.5547C16.2266 15.332 16.041 15.0449 15.9082 14.6934C15.7793 14.3379 15.7148 13.9277 15.7148 13.4629C15.7148 12.8652 15.8535 12.2949 16.1309 11.752C16.5371 10.9551 17.1543 10.4238 17.9824 10.1582C18.2988 10.0527 18.6035 10 18.8965 10C19.2637 10 19.6094 10.0859 19.9336 10.2578C20.5 10.5586 20.8223 11.1152 20.9004 11.9277ZM20.1387 11.9805C20.1035 11.6055 19.9805 11.3086 19.7695 11.0898C19.5625 10.8711 19.2793 10.7617 18.9199 10.7617C18.7051 10.7617 18.4707 10.8027 18.2168 10.8848C17.5879 11.084 17.1289 11.4688 16.8398 12.0391C16.5977 12.5195 16.4766 12.998 16.4766 13.4746C16.4766 13.8105 16.5215 14.1113 16.6113 14.377C16.7012 14.6426 16.8164 14.8418 16.957 14.9746C17.1328 15.1387 17.332 15.2207 17.5547 15.2207C17.6289 15.2207 17.6992 15.2129 17.7656 15.1973C17.8359 15.1777 17.9141 15.1641 18 15.1562C18.0664 15.1484 18.1973 15.0684 18.3926 14.916C18.5879 14.7598 18.7949 14.5391 19.0137 14.2539C19.2363 13.9688 19.4453 13.6484 19.6406 13.293C19.8359 12.9375 19.9941 12.5801 20.1152 12.2207C20.1191 12.1816 20.123 12.1426 20.127 12.1035C20.1309 12.0605 20.1348 12.0195 20.1387 11.9805Z" fill="#F5A525"/>
<path d="M4.55859 8.37695L4.56584 8.87695L4.57308 8.87674L4.55859 8.37695ZM3.87891 8.40039L3.84706 7.90141L3.36904 7.93192L3.37901 8.41081L3.87891 8.40039ZM3.91406 11.4355H3.41406V11.9321L3.91061 11.9355L3.91406 11.4355ZM8.16211 11.4648L8.15866 11.9648H8.16211V11.4648ZM8.43164 11.5879L8.02477 11.8785L8.03269 11.8896L8.04121 11.9002L8.43164 11.5879ZM8.43164 12.1094L8.04121 11.797L8.03633 11.8031L8.03164 11.8094L8.43164 12.1094ZM8.15625 12.2266L8.1528 12.7266H8.15625V12.2266ZM3.9082 12.1973L3.91165 11.6973L3.41197 11.6938L3.40822 12.1935L3.9082 12.1973ZM3.84375 14.6816L4.34307 14.7076L4.34311 14.7069L3.84375 14.6816ZM3.81445 15.2441L3.31513 15.2181L3.28765 15.7457L3.81598 15.7441L3.81445 15.2441ZM6.94922 15.2148L6.95888 15.7148L6.96123 15.7147L6.94922 15.2148ZM8.68945 15.1445L8.72867 15.6431L8.7392 15.642L8.68945 15.1445ZM8.95898 15.2617L8.54844 15.5473L8.55462 15.5558L8.95898 15.2617ZM8.9707 15.7832L9.37335 16.0799L9.38032 16.0699L8.9707 15.7832ZM8.71875 15.9062L8.68434 15.4073L8.67302 15.4083L8.71875 15.9062ZM6.81445 15.9824L6.80564 15.4825L6.8056 15.4825L6.81445 15.9824ZM3.04688 15.209L3.54657 15.2265L3.54658 15.2262L3.04688 15.209ZM3.11133 13.2988L3.61108 13.3144L3.61109 13.3143L3.11133 13.2988ZM3.14062 12.2031L3.6405 12.2142L3.6405 12.2141L3.14062 12.2031ZM3.12891 9.73633L2.62901 9.74712L2.62912 9.75081L3.12891 9.73633ZM3.2168 7.7793L2.86311 7.42561L2.85382 7.43542L3.2168 7.7793ZM3.46875 7.66211L3.48957 8.16187L3.50339 8.16091L3.46875 7.66211ZM3.89062 7.63281L3.8616 7.13362L3.85599 7.13401L3.89062 7.63281ZM6.04688 7.60938L6.06245 7.10962L6.06217 7.10961L6.04688 7.60938ZM9.24609 8.10156L9.45028 7.64515L9.45021 7.64513L9.24609 8.10156ZM9.46289 8.4707L8.96289 8.45983V8.4707H9.46289ZM9.36328 8.72852L8.99066 8.39512L8.98958 8.39633L9.36328 8.72852ZM8.93555 8.79297L9.14704 8.33976L9.13682 8.33527L8.93555 8.79297ZM5.33203 7.86523C5.08068 7.86523 4.81801 7.86922 4.54411 7.87716L4.57308 8.87674C4.83824 8.86906 5.0912 8.86523 5.33203 8.86523V7.86523ZM4.55135 7.87701C4.277 7.88098 4.04164 7.88899 3.84706 7.90141L3.91076 8.89938C4.08336 8.88836 4.30112 8.88074 4.56584 8.8769L4.55135 7.87701ZM3.37901 8.41081C3.4024 9.53316 3.41406 10.5413 3.41406 11.4355H4.41406C4.41406 10.5329 4.40229 9.51763 4.3788 8.38998L3.37901 8.41081ZM3.91061 11.9355L8.15866 11.9648L8.16556 10.9649L3.91751 10.9356L3.91061 11.9355ZM8.16211 11.9648C8.16684 11.9648 8.14593 11.9656 8.11267 11.9504C8.07624 11.9338 8.04526 11.9072 8.02477 11.8785L8.83851 11.2973C8.66651 11.0565 8.40784 10.9648 8.16211 10.9648V11.9648ZM8.04121 11.9002C8.04163 11.9008 8.03671 11.8946 8.03206 11.8818C8.02726 11.8686 8.02539 11.8556 8.02539 11.8457H9.02539C9.02539 11.6305 8.95039 11.4359 8.82208 11.2755L8.04121 11.9002ZM8.02539 11.8457C8.02539 11.8402 8.02646 11.8297 8.03085 11.8174C8.03517 11.8052 8.04022 11.7983 8.04121 11.797L8.82208 12.4217C8.95362 12.2573 9.02539 12.0599 9.02539 11.8457H8.02539ZM8.03164 11.8094C8.05633 11.7765 8.08982 11.7513 8.12307 11.7372C8.15261 11.7246 8.16792 11.7266 8.15625 11.7266V12.7266C8.39014 12.7266 8.65289 12.6477 8.83164 12.4094L8.03164 11.8094ZM8.1597 11.7266L3.91165 11.6973L3.90475 12.6973L8.1528 12.7266L8.1597 11.7266ZM3.40822 12.1935C3.40433 12.7104 3.39657 13.1736 3.38497 13.5835L4.38457 13.6118C4.3964 13.1935 4.40426 12.7232 4.40819 12.201L3.40822 12.1935ZM3.38497 13.5835C3.37332 13.995 3.35978 14.3525 3.34439 14.6564L4.34311 14.7069C4.35897 14.3936 4.37277 14.0284 4.38457 13.6118L3.38497 13.5835ZM3.34443 14.6556L3.31513 15.2181L4.31378 15.2701L4.34307 14.7076L3.34443 14.6556ZM3.81598 15.7441C5.09857 15.7402 6.14649 15.7304 6.95888 15.7148L6.93956 14.7149C6.13476 14.7305 5.09283 14.7402 3.81293 14.7441L3.81598 15.7441ZM6.96123 15.7147C7.77411 15.6952 8.36616 15.6715 8.72866 15.643L8.65025 14.6461C8.31743 14.6722 7.74933 14.6955 6.9372 14.715L6.96123 15.7147ZM8.7392 15.642C8.72994 15.643 8.6932 15.6444 8.64536 15.6236C8.59554 15.6019 8.56386 15.5693 8.54853 15.5473L9.36944 14.9762C9.19401 14.724 8.92051 14.6189 8.6397 14.647L8.7392 15.642ZM8.55462 15.5558C8.56032 15.5637 8.55932 15.5643 8.55705 15.5578C8.55596 15.5547 8.55481 15.5505 8.55396 15.5456C8.55312 15.5406 8.55273 15.5357 8.55273 15.5312H9.55273C9.55273 15.318 9.47936 15.1271 9.36335 14.9676L8.55462 15.5558ZM8.55273 15.5312C8.55273 15.5245 8.55391 15.5157 8.55679 15.5068C8.55959 15.4982 8.56234 15.4947 8.56109 15.4965L9.38032 16.0699C9.49001 15.9132 9.55273 15.7301 9.55273 15.5312H8.55273ZM8.56818 15.4866C8.58935 15.4579 8.61786 15.4347 8.64728 15.4203C8.67419 15.4072 8.69015 15.407 8.68435 15.4074L8.75315 16.4051C8.97588 16.3897 9.21164 16.2991 9.37323 16.0798L8.56818 15.4866ZM8.67302 15.4083C8.31028 15.4417 7.69172 15.4669 6.80564 15.4825L6.82326 16.4823C7.71063 16.4667 8.36159 16.4412 8.76448 16.4042L8.67302 15.4083ZM6.8056 15.4825C5.9269 15.4981 4.79732 15.5059 3.41602 15.5059V16.5059C4.80033 16.5059 5.93638 16.498 6.8233 16.4823L6.8056 15.4825ZM3.41602 15.5059C3.43604 15.5059 3.45894 15.5103 3.47992 15.5197C3.49975 15.5285 3.50794 15.5372 3.5059 15.5351L2.79879 16.2422C2.95726 16.4007 3.1679 16.5059 3.41602 16.5059V15.5059ZM3.5059 15.5351C3.50893 15.5382 3.51827 15.5489 3.52599 15.5675C3.53375 15.5861 3.53516 15.6012 3.53516 15.6074H2.53516C2.53516 15.8509 2.62797 16.0714 2.79879 16.2422L3.5059 15.5351ZM3.53516 15.6074C3.53516 15.5755 3.53859 15.4539 3.54657 15.2265L2.54718 15.1915C2.53954 15.4094 2.53516 15.5534 2.53516 15.6074H3.53516ZM3.54658 15.2262C3.55439 14.9997 3.56415 14.7186 3.57587 14.3827L2.57648 14.3478C2.56476 14.6838 2.55499 14.9651 2.54717 15.1918L3.54658 15.2262ZM3.57587 14.3827C3.58761 14.0461 3.59935 13.69 3.61108 13.3144L2.61157 13.2832C2.59987 13.6577 2.58817 14.0125 2.57648 14.3478L3.57587 14.3827ZM3.61109 13.3143C3.62285 12.934 3.63265 12.5674 3.6405 12.2142L2.64075 12.192C2.63297 12.542 2.62324 12.9058 2.61157 13.2834L3.61109 13.3143ZM3.6405 12.2141C3.64837 11.8562 3.65234 11.5438 3.65234 11.2773H2.65234C2.65234 11.5344 2.6485 11.8391 2.64075 12.1921L3.6405 12.2141ZM3.65234 11.2773C3.65234 10.7838 3.64445 10.2652 3.6287 9.72184L2.62912 9.75081C2.64462 10.2855 2.65234 10.7944 2.65234 11.2773H3.65234ZM3.62879 9.72554C3.61715 9.18646 3.61133 8.62366 3.61133 8.03711H2.61133C2.61133 8.63025 2.61722 9.20026 2.62902 9.74712L3.62879 9.72554ZM3.61133 8.03711C3.61133 8.04979 3.60873 8.06853 3.60047 8.08873C3.59237 8.10853 3.58285 8.11992 3.57977 8.12317L2.85382 7.43542C2.70008 7.59771 2.61133 7.80504 2.61133 8.03711H3.61133ZM3.57035 8.13285C3.57155 8.13165 3.56392 8.13951 3.54631 8.1477C3.52782 8.1563 3.50758 8.16093 3.48957 8.16168L3.44793 7.16254C3.21371 7.1723 3.01478 7.2742 2.86324 7.42574L3.57035 8.13285ZM3.50339 8.16091L3.92526 8.13161L3.85599 7.13401L3.43411 7.16331L3.50339 8.16091ZM3.91965 8.13197C4.24722 8.11292 4.58699 8.10145 4.93903 8.09763L4.92816 7.09769C4.56144 7.10167 4.2059 7.11364 3.8616 7.13366L3.91965 8.13197ZM4.93903 8.09763C5.29106 8.0938 5.65523 8.09762 6.03158 8.10914L6.06217 7.10961C5.6729 7.09769 5.29488 7.0937 4.92816 7.09769L4.93903 8.09763ZM6.0313 8.10913C7.52902 8.15581 8.50943 8.31985 9.04197 8.558L9.45021 7.64513C8.72494 7.32078 7.57254 7.15669 6.06245 7.10962L6.0313 8.10913ZM9.04191 8.55797C9.04015 8.55718 9.03048 8.55255 9.01747 8.54138C9.00399 8.52981 8.9909 8.51461 8.98048 8.49686C8.95889 8.4601 8.96347 8.43884 8.96301 8.45984L9.96277 8.48157C9.96622 8.32288 9.93662 8.15025 9.84276 7.99044C9.7468 7.82705 9.60568 7.71468 9.45028 7.64515L9.04191 8.55797ZM8.96289 8.4707C8.96289 8.46164 8.96467 8.4461 8.97159 8.4282C8.97844 8.41045 8.98689 8.39934 8.99066 8.39512L9.7359 9.06191C9.88254 8.89802 9.96289 8.69404 9.96289 8.4707H8.96289ZM8.98958 8.39633C9.00833 8.37524 9.03402 8.35655 9.06264 8.34484C9.08945 8.33388 9.10659 8.33398 9.10547 8.33398V9.33398C9.33207 9.33398 9.56383 9.2555 9.73699 9.0607L8.98958 8.39633ZM9.10547 8.33398C9.13597 8.33398 9.15132 8.3419 9.14699 8.33988L8.7241 9.24606C8.83696 9.29872 8.96559 9.33398 9.10547 9.33398V8.33398ZM9.13682 8.33527C8.38126 8.00301 7.08185 7.86523 5.33203 7.86523V8.86523C7.09002 8.86523 8.19295 9.01262 8.73427 9.25067L9.13682 8.33527ZM11.4961 7.51562L11.1253 7.85108L11.1337 7.86035L11.1425 7.86918L11.4961 7.51562ZM11.6016 7.79102L11.1029 7.75408L11.1023 7.76231L11.102 7.77055L11.6016 7.79102ZM11.4375 15.6367L10.9434 15.7136L10.9443 15.7189L11.4375 15.6367ZM10.8164 15.9883L10.5236 16.3938L10.5341 16.4009L10.8164 15.9883ZM10.6875 15.748L11.1825 15.6773L11.1815 15.6706L10.6875 15.748ZM10.8457 7.75586L11.3453 7.77721L11.3453 7.77508L10.8457 7.75586ZM10.9688 7.49805L10.6433 7.11831L10.6343 7.1264L10.9688 7.49805ZM11.2383 7.89258C11.2145 7.89258 11.1867 7.88701 11.1606 7.87458C11.136 7.86283 11.125 7.8507 11.1253 7.85108L11.8669 7.18017C11.7118 7.00877 11.4967 6.89258 11.2383 6.89258V7.89258ZM11.1425 7.86918C11.1381 7.86477 11.1246 7.84923 11.1141 7.82189C11.1034 7.79396 11.1018 7.76906 11.1029 7.75408L12.1002 7.82795C12.1193 7.57017 12.0254 7.33781 11.8496 7.16207L11.1425 7.86918ZM11.102 7.77055C11.0355 9.39262 10.9847 10.7674 10.9495 11.8945L11.949 11.9258C11.9841 10.8029 12.0348 9.4316 12.1011 7.81148L11.102 7.77055ZM10.9495 11.8945C10.9142 13.0214 10.8965 13.9063 10.8965 14.5469H11.8965C11.8965 13.9218 11.9139 13.0489 11.949 11.9258L10.9495 11.8945ZM10.8965 14.5469C10.8965 15.0902 10.9091 15.4929 10.9434 15.7136L11.9316 15.5599C11.9112 15.4289 11.8965 15.1051 11.8965 14.5469H10.8965ZM10.9443 15.7189C10.9446 15.7208 10.9434 15.7143 10.9434 15.7012H11.9434C11.9434 15.649 11.9382 15.5995 11.9307 15.5545L10.9443 15.7189ZM10.9434 15.7012C10.9434 15.7013 10.9435 15.6801 10.9578 15.6488C10.973 15.6155 10.9958 15.5893 11.0173 15.573L11.6233 16.3684C11.8476 16.1976 11.9434 15.9502 11.9434 15.7012H10.9434ZM11.0173 15.573C11.0148 15.5749 11.0181 15.5719 11.0271 15.5688C11.0364 15.5655 11.0452 15.5645 11.0508 15.5645V16.5645C11.2643 16.5645 11.4594 16.4933 11.6233 16.3684L11.0173 15.573ZM11.0508 15.5645C11.0623 15.5645 11.0744 15.5664 11.0852 15.5699C11.0956 15.5733 11.1002 15.5766 11.0987 15.5756L10.5341 16.4009C10.6831 16.5029 10.8583 16.5645 11.0508 16.5645V15.5645ZM11.1092 15.5829C11.1384 15.6041 11.1594 15.6303 11.172 15.6537C11.1835 15.6751 11.1837 15.6862 11.1825 15.6773L10.1925 15.8188C10.2218 16.0237 10.3151 16.243 10.5237 16.3936L11.1092 15.5829ZM11.1815 15.6706C11.1573 15.5165 11.1406 15.1478 11.1406 14.5234H10.1406C10.1406 15.1334 10.1552 15.5812 10.1935 15.8255L11.1815 15.6706ZM11.1406 14.5234C11.1406 13.2228 11.2085 10.9765 11.3452 7.77721L10.3462 7.73451C10.2094 10.9336 10.1406 13.1991 10.1406 14.5234H11.1406ZM11.3453 7.77508C11.3449 7.78764 11.3414 7.8081 11.3306 7.8306C11.3201 7.85276 11.3079 7.8655 11.3032 7.86969L10.6343 7.1264C10.4596 7.2836 10.3554 7.49504 10.3461 7.73664L11.3453 7.77508ZM11.2941 7.87768C11.2976 7.87468 11.293 7.87942 11.2799 7.88457C11.266 7.88999 11.251 7.89258 11.2383 7.89258V6.89258C11.0083 6.89258 10.8057 6.97929 10.6434 7.11842L11.2941 7.87768ZM14.4375 7.51562L14.0667 7.85108L14.0751 7.86035L14.0839 7.86918L14.4375 7.51562ZM14.543 7.79102L14.0443 7.75408L14.0437 7.76231L14.0434 7.77055L14.543 7.79102ZM14.3789 15.6367L13.8848 15.7136L13.8857 15.7189L14.3789 15.6367ZM13.7578 15.9883L13.465 16.3938L13.4755 16.4009L13.7578 15.9883ZM13.6289 15.748L14.1239 15.6773L14.1229 15.6706L13.6289 15.748ZM13.7871 7.75586L14.2867 7.77721L14.2867 7.77508L13.7871 7.75586ZM13.9102 7.49805L13.5847 7.11831L13.5757 7.1264L13.9102 7.49805ZM14.1797 7.89258C14.156 7.89258 14.1281 7.88701 14.102 7.87458C14.0774 7.86283 14.0664 7.8507 14.0667 7.85108L14.8083 7.18017C14.6532 7.00877 14.4381 6.89258 14.1797 6.89258V7.89258ZM14.0839 7.86918C14.0795 7.86477 14.066 7.84923 14.0555 7.82189C14.0448 7.79396 14.0432 7.76906 14.0443 7.75408L15.0416 7.82795C15.0607 7.57017 14.9668 7.33781 14.7911 7.16207L14.0839 7.86918ZM14.0434 7.77055C13.9769 9.39262 13.9261 10.7674 13.8909 11.8945L14.8904 11.9258C14.9255 10.8029 14.9762 9.4316 15.0425 7.81148L14.0434 7.77055ZM13.8909 11.8945C13.8557 13.0214 13.8379 13.9063 13.8379 14.5469H14.8379C14.8379 13.9218 14.8553 13.0489 14.8904 11.9258L13.8909 11.8945ZM13.8379 14.5469C13.8379 15.0902 13.8505 15.4929 13.8848 15.7136L14.873 15.5599C14.8526 15.4289 14.8379 15.1051 14.8379 14.5469H13.8379ZM13.8857 15.7189C13.886 15.7208 13.8848 15.7143 13.8848 15.7012H14.8848C14.8848 15.649 14.8796 15.5995 14.8721 15.5545L13.8857 15.7189ZM13.8848 15.7012C13.8848 15.7013 13.8849 15.6801 13.8992 15.6488C13.9144 15.6155 13.9372 15.5893 13.9587 15.573L14.5647 16.3684C14.789 16.1976 14.8848 15.9502 14.8848 15.7012H13.8848ZM13.9587 15.573C13.9562 15.5749 13.9595 15.5719 13.9686 15.5688C13.9779 15.5655 13.9866 15.5645 13.9922 15.5645V16.5645C14.2057 16.5645 14.4008 16.4933 14.5647 16.3684L13.9587 15.573ZM13.9922 15.5645C14.0037 15.5645 14.0158 15.5664 14.0266 15.5699C14.037 15.5733 14.0416 15.5766 14.0402 15.5756L13.4755 16.4009C13.6245 16.5029 13.7997 16.5645 13.9922 16.5645V15.5645ZM14.0506 15.5829C14.0798 15.6041 14.1008 15.6303 14.1134 15.6537C14.1249 15.6751 14.1251 15.6862 14.1239 15.6773L13.1339 15.8188C13.1632 16.0237 13.2565 16.243 13.4651 16.3936L14.0506 15.5829ZM14.1229 15.6706C14.0987 15.5165 14.082 15.1478 14.082 14.5234H13.082C13.082 15.1334 13.0966 15.5812 13.1349 15.8255L14.1229 15.6706ZM14.082 14.5234C14.082 13.2228 14.1499 10.9765 14.2867 7.77721L13.2876 7.73451C13.1509 10.9336 13.082 13.1991 13.082 14.5234H14.082ZM14.2867 7.77508C14.2863 7.78764 14.2828 7.8081 14.272 7.8306C14.2615 7.85276 14.2493 7.8655 14.2446 7.86969L13.5757 7.1264C13.401 7.2836 13.2968 7.49504 13.2875 7.73664L14.2867 7.77508ZM14.2356 7.87768C14.2391 7.87468 14.2344 7.87942 14.2213 7.88457C14.2074 7.88999 14.1924 7.89258 14.1797 7.89258V6.89258C13.9497 6.89258 13.7471 6.97929 13.5848 7.11842L14.2356 7.87768ZM20.9004 11.9277L20.4027 11.9756L20.4068 12.0181L20.418 12.0593L20.9004 11.9277ZM20.8652 12.373L20.3863 12.2294L20.3721 12.2767L20.3675 12.3258L20.8652 12.373ZM20.9473 15.6719L20.4644 15.8015L20.4663 15.8086L20.4684 15.8155L20.9473 15.6719ZM20.8359 16.041L20.5419 15.6366L20.5314 15.6443L20.5213 15.6524L20.8359 16.041ZM20.2148 15.8652L19.7321 15.9954L19.7334 16L20.2148 15.8652ZM20.0215 14.1543L20.5215 14.1486L20.5021 12.4325L19.5967 13.8905L20.0215 14.1543ZM18.8262 15.5664L19.1392 15.9563L19.1403 15.9554L18.8262 15.5664ZM18.0293 15.918L17.9795 15.4205L17.935 15.4249L17.8919 15.4372L18.0293 15.918ZM16.4648 15.5547L16.8075 15.1906L16.8062 15.1894L16.4648 15.5547ZM15.9082 14.6934L15.4381 14.8638L15.4405 14.8701L15.9082 14.6934ZM16.1309 11.752L16.5761 11.9794L16.5763 11.979L16.1309 11.752ZM17.9824 10.1582L18.1351 10.6343L18.1405 10.6325L17.9824 10.1582ZM19.9336 10.2578L20.1681 9.81622L20.1678 9.81605L19.9336 10.2578ZM20.1387 11.9805L20.6362 12.0302L20.641 11.982L20.6365 11.9338L20.1387 11.9805ZM19.7695 11.0898L19.4064 11.4336L19.4096 11.4369L19.7695 11.0898ZM18.2168 10.8848L18.3678 11.3614L18.3705 11.3606L18.2168 10.8848ZM16.8398 12.0391L16.3939 11.813L16.3934 11.814L16.8398 12.0391ZM16.957 14.9746L16.6137 15.3381L16.6159 15.3401L16.957 14.9746ZM17.7656 15.1973L17.8801 15.684L17.8898 15.6817L17.8994 15.679L17.7656 15.1973ZM18 15.1562L18.0453 15.6544L18.0584 15.6528L18 15.1562ZM18.3926 14.916L18.7001 15.3103L18.7049 15.3065L18.3926 14.916ZM19.0137 14.2539L18.6196 13.9462L18.617 13.9496L19.0137 14.2539ZM20.1152 12.2207L20.5891 12.3804L20.6071 12.3267L20.6128 12.2705L20.1152 12.2207ZM20.127 12.1035L20.6245 12.1533L20.6249 12.1488L20.127 12.1035ZM20.418 12.0593C20.4174 12.0572 20.418 12.0577 20.418 12.0625H21.418C21.418 11.9735 21.4068 11.8842 21.3828 11.7962L20.418 12.0593ZM20.418 12.0625C20.418 12.0897 20.4122 12.1432 20.3863 12.2294L21.3441 12.5167C21.3886 12.3685 21.418 12.215 21.418 12.0625H20.418ZM20.3675 12.3258C20.3078 12.9546 20.2773 13.5216 20.2773 14.0254H21.2773C21.2773 13.5604 21.3055 13.0259 21.363 12.4203L20.3675 12.3258ZM20.2773 14.0254C20.2773 14.7239 20.3353 15.321 20.4644 15.8015L21.4302 15.5422C21.3326 15.179 21.2773 14.6785 21.2773 14.0254H20.2773ZM20.4684 15.8155C20.4683 15.8153 20.4648 15.8038 20.4648 15.7832H21.4648C21.4648 15.6923 21.4497 15.6066 21.4262 15.5282L20.4684 15.8155ZM20.4648 15.7832C20.4648 15.7711 20.4676 15.7416 20.4854 15.7061C20.5034 15.6701 20.527 15.6474 20.5419 15.6366L21.13 16.4454C21.3497 16.2856 21.4648 16.047 21.4648 15.7832H20.4648ZM20.5213 15.6524C20.5184 15.6548 20.5225 15.6509 20.5337 15.6467C20.5454 15.6424 20.5573 15.6406 20.5664 15.6406V16.6406C20.7881 16.6406 20.9872 16.5619 21.1505 16.4296L20.5213 15.6524ZM20.5664 15.6406C20.5783 15.6406 20.5915 15.6425 20.6041 15.6463C20.6165 15.6501 20.6243 15.6546 20.6271 15.6564L20.0838 16.496C20.2256 16.5877 20.3894 16.6406 20.5664 16.6406V15.6406ZM20.6271 15.6564C20.6551 15.6745 20.6747 15.6961 20.6865 15.7139C20.6974 15.7302 20.6986 15.7384 20.6963 15.7304L19.7334 16C19.784 16.181 19.8888 16.3698 20.0838 16.496L20.6271 15.6564ZM20.6976 15.7351C20.5914 15.341 20.529 14.8163 20.5215 14.1486L19.5215 14.1599C19.5296 14.8751 19.5961 15.491 19.7321 15.9954L20.6976 15.7351ZM19.5967 13.8905C19.2472 14.4535 18.8838 14.8773 18.5121 15.1774L19.1403 15.9554C19.6202 15.568 20.0536 15.0505 20.4463 14.418L19.5967 13.8905ZM18.5131 15.1765C18.3153 15.3354 18.1386 15.4045 17.9795 15.4205L18.079 16.4155C18.4669 16.3767 18.8215 16.2115 19.1392 15.9563L18.5131 15.1765ZM17.8919 15.4372C17.7685 15.4725 17.6546 15.4883 17.5488 15.4883V16.4883C17.7556 16.4883 17.962 16.4572 18.1667 16.3987L17.8919 15.4372ZM17.5488 15.4883C17.3889 15.4883 17.2563 15.4591 17.1434 15.4087L16.7355 16.3217C16.9898 16.4354 17.2635 16.4883 17.5488 16.4883V15.4883ZM17.1434 15.4087C17.0057 15.3472 16.8956 15.2735 16.8075 15.1906L16.1222 15.9188C16.2997 16.0859 16.506 16.2192 16.7355 16.3217L17.1434 15.4087ZM16.8062 15.1894C16.6319 15.0265 16.4858 14.8074 16.3759 14.5167L15.4405 14.8701C15.5962 15.2824 15.8212 15.6376 16.1235 15.92L16.8062 15.1894ZM16.3783 14.5229C16.2731 14.233 16.2148 13.8825 16.2148 13.4629H15.2148C15.2148 13.973 15.2855 14.4428 15.4382 14.8638L16.3783 14.5229ZM16.2148 13.4629C16.2148 12.9459 16.334 12.4534 16.5761 11.9794L15.6856 11.5245C15.373 12.1364 15.2148 12.7845 15.2148 13.4629H16.2148ZM16.5763 11.979C16.924 11.2971 17.4379 10.858 18.1351 10.6343L17.8297 9.6821C16.8707 9.98969 16.1502 10.6131 15.6854 11.5249L16.5763 11.979ZM18.1405 10.6325C18.4129 10.5418 18.6641 10.5 18.8965 10.5V9.5C18.5429 9.5 18.1847 9.56371 17.8243 9.68386L18.1405 10.6325ZM18.8965 10.5C19.1821 10.5 19.4474 10.566 19.6994 10.6996L20.1678 9.81605C19.7714 9.60591 19.3453 9.5 18.8965 9.5V10.5ZM19.6991 10.6994C20.0767 10.9 20.3357 11.2788 20.4027 11.9756L21.3981 11.8799C21.3088 10.9517 20.9233 10.2172 20.1681 9.81622L19.6991 10.6994ZM20.6365 11.9338C20.5934 11.4737 20.4364 11.0611 20.1295 10.7428L19.4096 11.4369C19.5245 11.556 19.6137 11.7373 19.6409 12.0271L20.6365 11.9338ZM20.1327 10.7462C19.8131 10.4085 19.388 10.2617 18.9199 10.2617V11.2617C19.1706 11.2617 19.3119 11.3337 19.4064 11.4335L20.1327 10.7462ZM18.9199 10.2617C18.642 10.2617 18.3551 10.3146 18.0631 10.409L18.3705 11.3606C18.5863 11.2908 18.7681 11.2617 18.9199 11.2617V10.2617ZM18.0658 10.4081C17.3135 10.6464 16.7457 11.1187 16.3939 11.813L17.2858 12.2651C17.5121 11.8188 17.8623 11.5215 18.3678 11.3614L18.0658 10.4081ZM16.3934 11.814C16.1206 12.3552 15.9766 12.9103 15.9766 13.4746H16.9766C16.9766 13.0858 17.0747 12.6839 17.2863 12.2641L16.3934 11.814ZM15.9766 13.4746C15.9766 13.8546 16.0273 14.2109 16.1377 14.5372L17.085 14.2168C17.0156 14.0118 16.9766 13.7665 16.9766 13.4746H15.9766ZM16.1377 14.5372C16.2427 14.8478 16.393 15.1297 16.6137 15.3381L17.3003 14.6111C17.2398 14.5539 17.1596 14.4374 17.085 14.2168L16.1377 14.5372ZM16.6159 15.3401C16.8762 15.5831 17.1947 15.7207 17.5547 15.7207V14.7207C17.4693 14.7207 17.3895 14.6943 17.2982 14.6091L16.6159 15.3401ZM17.5547 15.7207C17.6641 15.7207 17.7731 15.7092 17.8801 15.684L17.6511 14.7106C17.6254 14.7166 17.5937 14.7207 17.5547 14.7207V15.7207ZM17.8994 15.679C17.9361 15.6688 17.984 15.6598 18.0453 15.6542L17.9547 14.6583C17.8441 14.6684 17.7358 14.6866 17.6318 14.7155L17.8994 15.679ZM18.0584 15.6528C18.2102 15.635 18.3417 15.558 18.4089 15.5168C18.4972 15.4628 18.5954 15.3919 18.7001 15.3103L18.0851 14.5218C17.9945 14.5924 17.9296 14.6378 17.887 14.6638C17.8657 14.6768 17.857 14.6808 17.8584 14.6801C17.8595 14.6796 17.8664 14.6766 17.8783 14.6728C17.8896 14.6693 17.9115 14.6632 17.9416 14.6597L18.0584 15.6528ZM18.7049 15.3065C18.9421 15.1167 19.1768 14.8628 19.4104 14.5582L18.617 13.9496C18.4131 14.2154 18.2337 14.4028 18.0802 14.5256L18.7049 15.3065ZM19.4078 14.5616C19.6487 14.253 19.8722 13.9099 20.0788 13.5337L19.2024 13.0522C19.0185 13.387 18.8239 13.6845 18.6196 13.9462L19.4078 14.5616ZM20.0788 13.5337C20.2874 13.1541 20.4579 12.7696 20.5891 12.3804L19.6414 12.061C19.5304 12.3905 19.3845 12.7209 19.2024 13.0522L20.0788 13.5337ZM20.6128 12.2705C20.6128 12.2704 20.6128 12.2703 20.6128 12.2702C20.6128 12.2701 20.6128 12.2701 20.6128 12.27C20.6128 12.2699 20.6128 12.2698 20.6128 12.2698C20.6128 12.2697 20.6128 12.2696 20.6128 12.2695C20.6129 12.2695 20.6129 12.2694 20.6129 12.2693C20.6129 12.2692 20.6129 12.2692 20.6129 12.2691C20.6129 12.269 20.6129 12.2689 20.6129 12.2689C20.6129 12.2688 20.6129 12.2687 20.6129 12.2686C20.6129 12.2685 20.613 12.2685 20.613 12.2684C20.613 12.2683 20.613 12.2682 20.613 12.2682C20.613 12.2681 20.613 12.268 20.613 12.2679C20.613 12.2679 20.613 12.2678 20.613 12.2677C20.613 12.2676 20.613 12.2676 20.6131 12.2675C20.6131 12.2674 20.6131 12.2673 20.6131 12.2673C20.6131 12.2672 20.6131 12.2671 20.6131 12.267C20.6131 12.2669 20.6131 12.2669 20.6131 12.2668C20.6131 12.2667 20.6131 12.2666 20.6131 12.2666C20.6131 12.2665 20.6132 12.2664 20.6132 12.2663C20.6132 12.2663 20.6132 12.2662 20.6132 12.2661C20.6132 12.266 20.6132 12.266 20.6132 12.2659C20.6132 12.2658 20.6132 12.2657 20.6132 12.2656C20.6132 12.2656 20.6132 12.2655 20.6133 12.2654C20.6133 12.2653 20.6133 12.2653 20.6133 12.2652C20.6133 12.2651 20.6133 12.265 20.6133 12.265C20.6133 12.2649 20.6133 12.2648 20.6133 12.2647C20.6133 12.2647 20.6133 12.2646 20.6133 12.2645C20.6134 12.2644 20.6134 12.2644 20.6134 12.2643C20.6134 12.2642 20.6134 12.2641 20.6134 12.264C20.6134 12.264 20.6134 12.2639 20.6134 12.2638C20.6134 12.2637 20.6134 12.2637 20.6134 12.2636C20.6134 12.2635 20.6135 12.2634 20.6135 12.2634C20.6135 12.2633 20.6135 12.2632 20.6135 12.2631C20.6135 12.2631 20.6135 12.263 20.6135 12.2629C20.6135 12.2628 20.6135 12.2627 20.6135 12.2627C20.6135 12.2626 20.6135 12.2625 20.6136 12.2624C20.6136 12.2624 20.6136 12.2623 20.6136 12.2622C20.6136 12.2621 20.6136 12.2621 20.6136 12.262C20.6136 12.2619 20.6136 12.2618 20.6136 12.2618C20.6136 12.2617 20.6136 12.2616 20.6136 12.2615C20.6137 12.2615 20.6137 12.2614 20.6137 12.2613C20.6137 12.2612 20.6137 12.2611 20.6137 12.2611C20.6137 12.261 20.6137 12.2609 20.6137 12.2608C20.6137 12.2608 20.6137 12.2607 20.6137 12.2606C20.6137 12.2605 20.6138 12.2605 20.6138 12.2604C20.6138 12.2603 20.6138 12.2602 20.6138 12.2602C20.6138 12.2601 20.6138 12.26 20.6138 12.2599C20.6138 12.2599 20.6138 12.2598 20.6138 12.2597C20.6138 12.2596 20.6138 12.2595 20.6139 12.2595C20.6139 12.2594 20.6139 12.2593 20.6139 12.2592C20.6139 12.2592 20.6139 12.2591 20.6139 12.259C20.6139 12.2589 20.6139 12.2589 20.6139 12.2588C20.6139 12.2587 20.6139 12.2586 20.6139 12.2586C20.614 12.2585 20.614 12.2584 20.614 12.2583C20.614 12.2582 20.614 12.2582 20.614 12.2581C20.614 12.258 20.614 12.2579 20.614 12.2579C20.614 12.2578 20.614 12.2577 20.614 12.2576C20.614 12.2576 20.614 12.2575 20.6141 12.2574C20.6141 12.2573 20.6141 12.2573 20.6141 12.2572C20.6141 12.2571 20.6141 12.257 20.6141 12.257C20.6141 12.2569 20.6141 12.2568 20.6141 12.2567C20.6141 12.2566 20.6141 12.2566 20.6141 12.2565C20.6142 12.2564 20.6142 12.2563 20.6142 12.2563C20.6142 12.2562 20.6142 12.2561 20.6142 12.256C20.6142 12.256 20.6142 12.2559 20.6142 12.2558C20.6142 12.2557 20.6142 12.2557 20.6142 12.2556C20.6142 12.2555 20.6143 12.2554 20.6143 12.2553C20.6143 12.2553 20.6143 12.2552 20.6143 12.2551C20.6143 12.255 20.6143 12.255 20.6143 12.2549C20.6143 12.2548 20.6143 12.2547 20.6143 12.2547C20.6143 12.2546 20.6143 12.2545 20.6144 12.2544C20.6144 12.2544 20.6144 12.2543 20.6144 12.2542C20.6144 12.2541 20.6144 12.2541 20.6144 12.254C20.6144 12.2539 20.6144 12.2538 20.6144 12.2537C20.6144 12.2537 20.6144 12.2536 20.6144 12.2535C20.6145 12.2534 20.6145 12.2534 20.6145 12.2533C20.6145 12.2532 20.6145 12.2531 20.6145 12.2531C20.6145 12.253 20.6145 12.2529 20.6145 12.2528C20.6145 12.2528 20.6145 12.2527 20.6145 12.2526C20.6145 12.2525 20.6146 12.2524 20.6146 12.2524C20.6146 12.2523 20.6146 12.2522 20.6146 12.2521C20.6146 12.2521 20.6146 12.252 20.6146 12.2519C20.6146 12.2518 20.6146 12.2518 20.6146 12.2517C20.6146 12.2516 20.6146 12.2515 20.6147 12.2515C20.6147 12.2514 20.6147 12.2513 20.6147 12.2512C20.6147 12.2512 20.6147 12.2511 20.6147 12.251C20.6147 12.2509 20.6147 12.2508 20.6147 12.2508C20.6147 12.2507 20.6147 12.2506 20.6147 12.2505C20.6148 12.2505 20.6148 12.2504 20.6148 12.2503C20.6148 12.2502 20.6148 12.2502 20.6148 12.2501C20.6148 12.25 20.6148 12.2499 20.6148 12.2499C20.6148 12.2498 20.6148 12.2497 20.6148 12.2496C20.6148 12.2496 20.6149 12.2495 20.6149 12.2494C20.6149 12.2493 20.6149 12.2492 20.6149 12.2492C20.6149 12.2491 20.6149 12.249 20.6149 12.2489C20.6149 12.2489 20.6149 12.2488 20.6149 12.2487C20.6149 12.2486 20.6149 12.2486 20.615 12.2485C20.615 12.2484 20.615 12.2483 20.615 12.2483C20.615 12.2482 20.615 12.2481 20.615 12.248C20.615 12.2479 20.615 12.2479 20.615 12.2478C20.615 12.2477 20.615 12.2476 20.615 12.2476C20.615 12.2475 20.6151 12.2474 20.6151 12.2473C20.6151 12.2473 20.6151 12.2472 20.6151 12.2471C20.6151 12.247 20.6151 12.247 20.6151 12.2469C20.6151 12.2468 20.6151 12.2467 20.6151 12.2467C20.6151 12.2466 20.6151 12.2465 20.6152 12.2464C20.6152 12.2463 20.6152 12.2463 20.6152 12.2462C20.6152 12.2461 20.6152 12.246 20.6152 12.246C20.6152 12.2459 20.6152 12.2458 20.6152 12.2457C20.6152 12.2457 20.6152 12.2456 20.6152 12.2455C20.6153 12.2454 20.6153 12.2454 20.6153 12.2453C20.6153 12.2452 20.6153 12.2451 20.6153 12.245C20.6153 12.245 20.6153 12.2449 20.6153 12.2448C20.6153 12.2447 20.6153 12.2447 20.6153 12.2446C20.6153 12.2445 20.6154 12.2444 20.6154 12.2444C20.6154 12.2443 20.6154 12.2442 20.6154 12.2441C20.6154 12.2441 20.6154 12.244 20.6154 12.2439C20.6154 12.2438 20.6154 12.2438 20.6154 12.2437C20.6154 12.2436 20.6154 12.2435 20.6155 12.2434C20.6155 12.2434 20.6155 12.2433 20.6155 12.2432C20.6155 12.2431 20.6155 12.2431 20.6155 12.243C20.6155 12.2429 20.6155 12.2428 20.6155 12.2428C20.6155 12.2427 20.6155 12.2426 20.6155 12.2425C20.6156 12.2425 20.6156 12.2424 20.6156 12.2423C20.6156 12.2422 20.6156 12.2421 20.6156 12.2421C20.6156 12.242 20.6156 12.2419 20.6156 12.2418C20.6156 12.2418 20.6156 12.2417 20.6156 12.2416C20.6156 12.2415 20.6157 12.2415 20.6157 12.2414C20.6157 12.2413 20.6157 12.2412 20.6157 12.2412C20.6157 12.2411 20.6157 12.241 20.6157 12.2409C20.6157 12.2409 20.6157 12.2408 20.6157 12.2407C20.6157 12.2406 20.6157 12.2405 20.6158 12.2405C20.6158 12.2404 20.6158 12.2403 20.6158 12.2402C20.6158 12.2402 20.6158 12.2401 20.6158 12.24C20.6158 12.2399 20.6158 12.2399 20.6158 12.2398C20.6158 12.2397 20.6158 12.2396 20.6158 12.2396C20.6159 12.2395 20.6159 12.2394 20.6159 12.2393C20.6159 12.2393 20.6159 12.2392 20.6159 12.2391C20.6159 12.239 20.6159 12.2389 20.6159 12.2389C20.6159 12.2388 20.6159 12.2387 20.6159 12.2386C20.6159 12.2386 20.6159 12.2385 20.616 12.2384C20.616 12.2383 20.616 12.2383 20.616 12.2382C20.616 12.2381 20.616 12.238 20.616 12.238C20.616 12.2379 20.616 12.2378 20.616 12.2377C20.616 12.2376 20.616 12.2376 20.616 12.2375C20.6161 12.2374 20.6161 12.2373 20.6161 12.2373C20.6161 12.2372 20.6161 12.2371 20.6161 12.237C20.6161 12.237 20.6161 12.2369 20.6161 12.2368C20.6161 12.2367 20.6161 12.2367 20.6161 12.2366C20.6161 12.2365 20.6162 12.2364 20.6162 12.2364C20.6162 12.2363 20.6162 12.2362 20.6162 12.2361C20.6162 12.236 20.6162 12.236 20.6162 12.2359C20.6162 12.2358 20.6162 12.2357 20.6162 12.2357C20.6162 12.2356 20.6162 12.2355 20.6163 12.2354C20.6163 12.2354 20.6163 12.2353 20.6163 12.2352C20.6163 12.2351 20.6163 12.2351 20.6163 12.235C20.6163 12.2349 20.6163 12.2348 20.6163 12.2347C20.6163 12.2347 20.6163 12.2346 20.6163 12.2345C20.6164 12.2344 20.6164 12.2344 20.6164 12.2343C20.6164 12.2342 20.6164 12.2341 20.6164 12.2341C20.6164 12.234 20.6164 12.2339 20.6164 12.2338C20.6164 12.2338 20.6164 12.2337 20.6164 12.2336C20.6164 12.2335 20.6165 12.2335 20.6165 12.2334C20.6165 12.2333 20.6165 12.2332 20.6165 12.2331C20.6165 12.2331 20.6165 12.233 20.6165 12.2329C20.6165 12.2328 20.6165 12.2328 20.6165 12.2327C20.6165 12.2326 20.6165 12.2325 20.6166 12.2325C20.6166 12.2324 20.6166 12.2323 20.6166 12.2322C20.6166 12.2322 20.6166 12.2321 20.6166 12.232C20.6166 12.2319 20.6166 12.2319 20.6166 12.2318C20.6166 12.2317 20.6166 12.2316 20.6166 12.2315C20.6167 12.2315 20.6167 12.2314 20.6167 12.2313C20.6167 12.2312 20.6167 12.2312 20.6167 12.2311C20.6167 12.231 20.6167 12.2309 20.6167 12.2309C20.6167 12.2308 20.6167 12.2307 20.6167 12.2306C20.6167 12.2306 20.6168 12.2305 20.6168 12.2304C20.6168 12.2303 20.6168 12.2302 20.6168 12.2302C20.6168 12.2301 20.6168 12.23 20.6168 12.2299C20.6168 12.2299 20.6168 12.2298 20.6168 12.2297C20.6168 12.2296 20.6168 12.2296 20.6168 12.2295C20.6169 12.2294 20.6169 12.2293 20.6169 12.2293C20.6169 12.2292 20.6169 12.2291 20.6169 12.229C20.6169 12.229 20.6169 12.2289 20.6169 12.2288C20.6169 12.2287 20.6169 12.2286 20.6169 12.2286C20.6169 12.2285 20.617 12.2284 20.617 12.2283C20.617 12.2283 20.617 12.2282 20.617 12.2281C20.617 12.228 20.617 12.228 20.617 12.2279C20.617 12.2278 20.617 12.2277 20.617 12.2277C20.617 12.2276 20.617 12.2275 20.6171 12.2274C20.6171 12.2273 20.6171 12.2273 20.6171 12.2272C20.6171 12.2271 20.6171 12.227 20.6171 12.227C20.6171 12.2269 20.6171 12.2268 20.6171 12.2267C20.6171 12.2267 20.6171 12.2266 20.6171 12.2265C20.6172 12.2264 20.6172 12.2264 20.6172 12.2263C20.6172 12.2262 20.6172 12.2261 20.6172 12.2261C20.6172 12.226 20.6172 12.2259 20.6172 12.2258C20.6172 12.2257 20.6172 12.2257 20.6172 12.2256C20.6172 12.2255 20.6173 12.2254 20.6173 12.2254C20.6173 12.2253 20.6173 12.2252 20.6173 12.2251C20.6173 12.2251 20.6173 12.225 20.6173 12.2249C20.6173 12.2248 20.6173 12.2248 20.6173 12.2247C20.6173 12.2246 20.6173 12.2245 20.6174 12.2244C20.6174 12.2244 20.6174 12.2243 20.6174 12.2242C20.6174 12.2241 20.6174 12.2241 20.6174 12.224C20.6174 12.2239 20.6174 12.2238 20.6174 12.2238C20.6174 12.2237 20.6174 12.2236 20.6174 12.2235C20.6175 12.2235 20.6175 12.2234 20.6175 12.2233C20.6175 12.2232 20.6175 12.2232 20.6175 12.2231C20.6175 12.223 20.6175 12.2229 20.6175 12.2228C20.6175 12.2228 20.6175 12.2227 20.6175 12.2226C20.6175 12.2225 20.6176 12.2225 20.6176 12.2224C20.6176 12.2223 20.6176 12.2222 20.6176 12.2222C20.6176 12.2221 20.6176 12.222 20.6176 12.2219C20.6176 12.2219 20.6176 12.2218 20.6176 12.2217C20.6176 12.2216 20.6176 12.2216 20.6177 12.2215C20.6177 12.2214 20.6177 12.2213 20.6177 12.2212C20.6177 12.2212 20.6177 12.2211 20.6177 12.221C20.6177 12.2209 20.6177 12.2209 20.6177 12.2208C20.6177 12.2207 20.6177 12.2206 20.6177 12.2206C20.6178 12.2205 20.6178 12.2204 20.6178 12.2203C20.6178 12.2203 20.6178 12.2202 20.6178 12.2201C20.6178 12.22 20.6178 12.2199 20.6178 12.2199C20.6178 12.2198 20.6178 12.2197 20.6178 12.2196C20.6178 12.2196 20.6178 12.2195 20.6179 12.2194C20.6179 12.2193 20.6179 12.2193 20.6179 12.2192C20.6179 12.2191 20.6179 12.219 20.6179 12.219C20.6179 12.2189 20.6179 12.2188 20.6179 12.2187C20.6179 12.2187 20.6179 12.2186 20.6179 12.2185C20.618 12.2184 20.618 12.2183 20.618 12.2183C20.618 12.2182 20.618 12.2181 20.618 12.218C20.618 12.218 20.618 12.2179 20.618 12.2178C20.618 12.2177 20.618 12.2177 20.618 12.2176C20.618 12.2175 20.6181 12.2174 20.6181 12.2174C20.6181 12.2173 20.6181 12.2172 20.6181 12.2171C20.6181 12.217 20.6181 12.217 20.6181 12.2169C20.6181 12.2168 20.6181 12.2167 20.6181 12.2167C20.6181 12.2166 20.6181 12.2165 20.6182 12.2164C20.6182 12.2164 20.6182 12.2163 20.6182 12.2162C20.6182 12.2161 20.6182 12.2161 20.6182 12.216C20.6182 12.2159 20.6182 12.2158 20.6182 12.2158C20.6182 12.2157 20.6182 12.2156 20.6182 12.2155C20.6183 12.2154 20.6183 12.2154 20.6183 12.2153C20.6183 12.2152 20.6183 12.2151 20.6183 12.2151C20.6183 12.215 20.6183 12.2149 20.6183 12.2148C20.6183 12.2148 20.6183 12.2147 20.6183 12.2146C20.6183 12.2145 20.6184 12.2145 20.6184 12.2144C20.6184 12.2143 20.6184 12.2142 20.6184 12.2142C20.6184 12.2141 20.6184 12.214 20.6184 12.2139C20.6184 12.2138 20.6184 12.2138 20.6184 12.2137C20.6184 12.2136 20.6184 12.2135 20.6185 12.2135C20.6185 12.2134 20.6185 12.2133 20.6185 12.2132C20.6185 12.2132 20.6185 12.2131 20.6185 12.213C20.6185 12.2129 20.6185 12.2129 20.6185 12.2128C20.6185 12.2127 20.6185 12.2126 20.6185 12.2125C20.6186 12.2125 20.6186 12.2124 20.6186 12.2123C20.6186 12.2122 20.6186 12.2122 20.6186 12.2121C20.6186 12.212 20.6186 12.2119 20.6186 12.2119C20.6186 12.2118 20.6186 12.2117 20.6186 12.2116C20.6186 12.2116 20.6187 12.2115 20.6187 12.2114C20.6187 12.2113 20.6187 12.2113 20.6187 12.2112C20.6187 12.2111 20.6187 12.211 20.6187 12.2109C20.6187 12.2109 20.6187 12.2108 20.6187 12.2107C20.6187 12.2106 20.6187 12.2106 20.6187 12.2105C20.6188 12.2104 20.6188 12.2103 20.6188 12.2103C20.6188 12.2102 20.6188 12.2101 20.6188 12.21C20.6188 12.21 20.6188 12.2099 20.6188 12.2098C20.6188 12.2097 20.6188 12.2096 20.6188 12.2096C20.6188 12.2095 20.6189 12.2094 20.6189 12.2093C20.6189 12.2093 20.6189 12.2092 20.6189 12.2091C20.6189 12.209 20.6189 12.209 20.6189 12.2089C20.6189 12.2088 20.6189 12.2087 20.6189 12.2087C20.6189 12.2086 20.6189 12.2085 20.619 12.2084C20.619 12.2084 20.619 12.2083 20.619 12.2082C20.619 12.2081 20.619 12.208 20.619 12.208C20.619 12.2079 20.619 12.2078 20.619 12.2077C20.619 12.2077 20.619 12.2076 20.619 12.2075C20.6191 12.2074 20.6191 12.2074 20.6191 12.2073C20.6191 12.2072 20.6191 12.2071 20.6191 12.2071C20.6191 12.207 20.6191 12.2069 20.6191 12.2068C20.6191 12.2067 20.6191 12.2067 20.6191 12.2066C20.6191 12.2065 20.6192 12.2064 20.6192 12.2064C20.6192 12.2063 20.6192 12.2062 20.6192 12.2061C20.6192 12.2061 20.6192 12.206 20.6192 12.2059C20.6192 12.2058 20.6192 12.2058 20.6192 12.2057C20.6192 12.2056 20.6192 12.2055 20.6193 12.2055C20.6193 12.2054 20.6193 12.2053 20.6193 12.2052C20.6193 12.2051 20.6193 12.2051 20.6193 12.205C20.6193 12.2049 20.6193 12.2048 20.6193 12.2048C20.6193 12.2047 20.6193 12.2046 20.6193 12.2045C20.6194 12.2045 20.6194 12.2044 20.6194 12.2043C20.6194 12.2042 20.6194 12.2042 20.6194 12.2041C20.6194 12.204 20.6194 12.2039 20.6194 12.2039C20.6194 12.2038 20.6194 12.2037 20.6194 12.2036C20.6194 12.2035 20.6195 12.2035 20.6195 12.2034C20.6195 12.2033 20.6195 12.2032 20.6195 12.2032C20.6195 12.2031 20.6195 12.203 20.6195 12.2029C20.6195 12.2029 20.6195 12.2028 20.6195 12.2027C20.6195 12.2026 20.6195 12.2026 20.6196 12.2025C20.6196 12.2024 20.6196 12.2023 20.6196 12.2022C20.6196 12.2022 20.6196 12.2021 20.6196 12.202C20.6196 12.2019 20.6196 12.2019 20.6196 12.2018C20.6196 12.2017 20.6196 12.2016 20.6196 12.2016C20.6196 12.2015 20.6197 12.2014 20.6197 12.2013C20.6197 12.2013 20.6197 12.2012 20.6197 12.2011C20.6197 12.201 20.6197 12.201 20.6197 12.2009C20.6197 12.2008 20.6197 12.2007 20.6197 12.2006C20.6197 12.2006 20.6197 12.2005 20.6198 12.2004C20.6198 12.2003 20.6198 12.2003 20.6198 12.2002C20.6198 12.2001 20.6198 12.2 20.6198 12.2C20.6198 12.1999 20.6198 12.1998 20.6198 12.1997C20.6198 12.1997 20.6198 12.1996 20.6198 12.1995C20.6199 12.1994 20.6199 12.1993 20.6199 12.1993C20.6199 12.1992 20.6199 12.1991 20.6199 12.199C20.6199 12.199 20.6199 12.1989 20.6199 12.1988C20.6199 12.1987 20.6199 12.1987 20.6199 12.1986C20.6199 12.1985 20.62 12.1984 20.62 12.1984C20.62 12.1983 20.62 12.1982 20.62 12.1981C20.62 12.1981 20.62 12.198 20.62 12.1979C20.62 12.1978 20.62 12.1977 20.62 12.1977C20.62 12.1976 20.62 12.1975 20.6201 12.1974C20.6201 12.1974 20.6201 12.1973 20.6201 12.1972C20.6201 12.1971 20.6201 12.1971 20.6201 12.197C20.6201 12.1969 20.6201 12.1968 20.6201 12.1968C20.6201 12.1967 20.6201 12.1966 20.6201 12.1965C20.6202 12.1964 20.6202 12.1964 20.6202 12.1963C20.6202 12.1962 20.6202 12.1961 20.6202 12.1961C20.6202 12.196 20.6202 12.1959 20.6202 12.1958C20.6202 12.1958 20.6202 12.1957 20.6202 12.1956C20.6202 12.1955 20.6203 12.1955 20.6203 12.1954C20.6203 12.1953 20.6203 12.1952 20.6203 12.1952C20.6203 12.1951 20.6203 12.195 20.6203 12.1949C20.6203 12.1948 20.6203 12.1948 20.6203 12.1947C20.6203 12.1946 20.6203 12.1945 20.6204 12.1945C20.6204 12.1944 20.6204 12.1943 20.6204 12.1942C20.6204 12.1942 20.6204 12.1941 20.6204 12.194C20.6204 12.1939 20.6204 12.1939 20.6204 12.1938C20.6204 12.1937 20.6204 12.1936 20.6204 12.1936C20.6205 12.1935 20.6205 12.1934 20.6205 12.1933C20.6205 12.1932 20.6205 12.1932 20.6205 12.1931C20.6205 12.193 20.6205 12.1929 20.6205 12.1929C20.6205 12.1928 20.6205 12.1927 20.6205 12.1926C20.6205 12.1926 20.6206 12.1925 20.6206 12.1924C20.6206 12.1923 20.6206 12.1923 20.6206 12.1922C20.6206 12.1921 20.6206 12.192 20.6206 12.1919C20.6206 12.1919 20.6206 12.1918 20.6206 12.1917C20.6206 12.1916 20.6206 12.1916 20.6206 12.1915C20.6207 12.1914 20.6207 12.1913 20.6207 12.1913C20.6207 12.1912 20.6207 12.1911 20.6207 12.191C20.6207 12.191 20.6207 12.1909 20.6207 12.1908C20.6207 12.1907 20.6207 12.1907 20.6207 12.1906C20.6207 12.1905 20.6208 12.1904 20.6208 12.1903C20.6208 12.1903 20.6208 12.1902 20.6208 12.1901C20.6208 12.19 20.6208 12.19 20.6208 12.1899C20.6208 12.1898 20.6208 12.1897 20.6208 12.1897C20.6208 12.1896 20.6208 12.1895 20.6209 12.1894C20.6209 12.1894 20.6209 12.1893 20.6209 12.1892C20.6209 12.1891 20.6209 12.189 20.6209 12.189C20.6209 12.1889 20.6209 12.1888 20.6209 12.1887C20.6209 12.1887 20.6209 12.1886 20.6209 12.1885C20.621 12.1884 20.621 12.1884 20.621 12.1883C20.621 12.1882 20.621 12.1881 20.621 12.1881C20.621 12.188 20.621 12.1879 20.621 12.1878C20.621 12.1878 20.621 12.1877 20.621 12.1876C20.621 12.1875 20.6211 12.1874 20.6211 12.1874C20.6211 12.1873 20.6211 12.1872 20.6211 12.1871C20.6211 12.1871 20.6211 12.187 20.6211 12.1869C20.6211 12.1868 20.6211 12.1868 20.6211 12.1867C20.6211 12.1866 20.6211 12.1865 20.6212 12.1865C20.6212 12.1864 20.6212 12.1863 20.6212 12.1862C20.6212 12.1862 20.6212 12.1861 20.6212 12.186C20.6212 12.1859 20.6212 12.1858 20.6212 12.1858C20.6212 12.1857 20.6212 12.1856 20.6212 12.1855C20.6213 12.1855 20.6213 12.1854 20.6213 12.1853C20.6213 12.1852 20.6213 12.1852 20.6213 12.1851C20.6213 12.185 20.6213 12.1849 20.6213 12.1849C20.6213 12.1848 20.6213 12.1847 20.6213 12.1846C20.6213 12.1845 20.6214 12.1845 20.6214 12.1844C20.6214 12.1843 20.6214 12.1842 20.6214 12.1842C20.6214 12.1841 20.6214 12.184 20.6214 12.1839C20.6214 12.1839 20.6214 12.1838 20.6214 12.1837C20.6214 12.1836 20.6214 12.1836 20.6215 12.1835C20.6215 12.1834 20.6215 12.1833 20.6215 12.1833C20.6215 12.1832 20.6215 12.1831 20.6215 12.183C20.6215 12.1829 20.6215 12.1829 20.6215 12.1828C20.6215 12.1827 20.6215 12.1826 20.6215 12.1826C20.6215 12.1825 20.6216 12.1824 20.6216 12.1823C20.6216 12.1823 20.6216 12.1822 20.6216 12.1821C20.6216 12.182 20.6216 12.182 20.6216 12.1819C20.6216 12.1818 20.6216 12.1817 20.6216 12.1816C20.6216 12.1816 20.6216 12.1815 20.6217 12.1814C20.6217 12.1813 20.6217 12.1813 20.6217 12.1812C20.6217 12.1811 20.6217 12.181 20.6217 12.181C20.6217 12.1809 20.6217 12.1808 20.6217 12.1807C20.6217 12.1807 20.6217 12.1806 20.6217 12.1805C20.6218 12.1804 20.6218 12.1804 20.6218 12.1803C20.6218 12.1802 20.6218 12.1801 20.6218 12.18C20.6218 12.18 20.6218 12.1799 20.6218 12.1798C20.6218 12.1797 20.6218 12.1797 20.6218 12.1796C20.6218 12.1795 20.6219 12.1794 20.6219 12.1794C20.6219 12.1793 20.6219 12.1792 20.6219 12.1791C20.6219 12.1791 20.6219 12.179 20.6219 12.1789C20.6219 12.1788 20.6219 12.1787 20.6219 12.1787C20.6219 12.1786 20.6219 12.1785 20.622 12.1784C20.622 12.1784 20.622 12.1783 20.622 12.1782C20.622 12.1781 20.622 12.1781 20.622 12.178C20.622 12.1779 20.622 12.1778 20.622 12.1778C20.622 12.1777 20.622 12.1776 20.622 12.1775C20.6221 12.1775 20.6221 12.1774 20.6221 12.1773C20.6221 12.1772 20.6221 12.1771 20.6221 12.1771C20.6221 12.177 20.6221 12.1769 20.6221 12.1768C20.6221 12.1768 20.6221 12.1767 20.6221 12.1766C20.6221 12.1765 20.6222 12.1765 20.6222 12.1764C20.6222 12.1763 20.6222 12.1762 20.6222 12.1762C20.6222 12.1761 20.6222 12.176 20.6222 12.1759C20.6222 12.1759 20.6222 12.1758 20.6222 12.1757C20.6222 12.1756 20.6222 12.1755 20.6223 12.1755C20.6223 12.1754 20.6223 12.1753 20.6223 12.1752C20.6223 12.1752 20.6223 12.1751 20.6223 12.175C20.6223 12.1749 20.6223 12.1749 20.6223 12.1748C20.6223 12.1747 20.6223 12.1746 20.6223 12.1746C20.6224 12.1745 20.6224 12.1744 20.6224 12.1743C20.6224 12.1742 20.6224 12.1742 20.6224 12.1741C20.6224 12.174 20.6224 12.1739 20.6224 12.1739C20.6224 12.1738 20.6224 12.1737 20.6224 12.1736C20.6224 12.1736 20.6224 12.1735 20.6225 12.1734C20.6225 12.1733 20.6225 12.1733 20.6225 12.1732C20.6225 12.1731 20.6225 12.173 20.6225 12.173C20.6225 12.1729 20.6225 12.1728 20.6225 12.1727C20.6225 12.1726 20.6225 12.1726 20.6225 12.1725C20.6226 12.1724 20.6226 12.1723 20.6226 12.1723C20.6226 12.1722 20.6226 12.1721 20.6226 12.172C20.6226 12.172 20.6226 12.1719 20.6226 12.1718C20.6226 12.1717 20.6226 12.1717 20.6226 12.1716C20.6226 12.1715 20.6227 12.1714 20.6227 12.1713C20.6227 12.1713 20.6227 12.1712 20.6227 12.1711C20.6227 12.171 20.6227 12.171 20.6227 12.1709C20.6227 12.1708 20.6227 12.1707 20.6227 12.1707C20.6227 12.1706 20.6227 12.1705 20.6228 12.1704C20.6228 12.1704 20.6228 12.1703 20.6228 12.1702C20.6228 12.1701 20.6228 12.1701 20.6228 12.17C20.6228 12.1699 20.6228 12.1698 20.6228 12.1697C20.6228 12.1697 20.6228 12.1696 20.6228 12.1695C20.6229 12.1694 20.6229 12.1694 20.6229 12.1693C20.6229 12.1692 20.6229 12.1691 20.6229 12.1691C20.6229 12.169 20.6229 12.1689 20.6229 12.1688C20.6229 12.1688 20.6229 12.1687 20.6229 12.1686C20.6229 12.1685 20.623 12.1684 20.623 12.1684C20.623 12.1683 20.623 12.1682 20.623 12.1681C20.623 12.1681 20.623 12.168 20.623 12.1679C20.623 12.1678 20.623 12.1678 20.623 12.1677C20.623 12.1676 20.623 12.1675 20.6231 12.1675C20.6231 12.1674 20.6231 12.1673 20.6231 12.1672C20.6231 12.1672 20.6231 12.1671 20.6231 12.167C20.6231 12.1669 20.6231 12.1668 20.6231 12.1668C20.6231 12.1667 20.6231 12.1666 20.6231 12.1665C20.6232 12.1665 20.6232 12.1664 20.6232 12.1663C20.6232 12.1662 20.6232 12.1662 20.6232 12.1661C20.6232 12.166 20.6232 12.1659 20.6232 12.1659C20.6232 12.1658 20.6232 12.1657 20.6232 12.1656C20.6232 12.1656 20.6233 12.1655 20.6233 12.1654C20.6233 12.1653 20.6233 12.1652 20.6233 12.1652C20.6233 12.1651 20.6233 12.165 20.6233 12.1649C20.6233 12.1649 20.6233 12.1648 20.6233 12.1647C20.6233 12.1646 20.6233 12.1646 20.6234 12.1645C20.6234 12.1644 20.6234 12.1643 20.6234 12.1643C20.6234 12.1642 20.6234 12.1641 20.6234 12.164C20.6234 12.1639 20.6234 12.1639 20.6234 12.1638C20.6234 12.1637 20.6234 12.1636 20.6234 12.1636C20.6234 12.1635 20.6235 12.1634 20.6235 12.1633C20.6235 12.1633 20.6235 12.1632 20.6235 12.1631C20.6235 12.163 20.6235 12.163 20.6235 12.1629C20.6235 12.1628 20.6235 12.1627 20.6235 12.1627C20.6235 12.1626 20.6235 12.1625 20.6236 12.1624C20.6236 12.1623 20.6236 12.1623 20.6236 12.1622C20.6236 12.1621 20.6236 12.162 20.6236 12.162C20.6236 12.1619 20.6236 12.1618 20.6236 12.1617C20.6236 12.1617 20.6236 12.1616 20.6236 12.1615C20.6237 12.1614 20.6237 12.1614 20.6237 12.1613C20.6237 12.1612 20.6237 12.1611 20.6237 12.161C20.6237 12.161 20.6237 12.1609 20.6237 12.1608C20.6237 12.1607 20.6237 12.1607 20.6237 12.1606C20.6237 12.1605 20.6238 12.1604 20.6238 12.1604C20.6238 12.1603 20.6238 12.1602 20.6238 12.1601C20.6238 12.1601 20.6238 12.16 20.6238 12.1599C20.6238 12.1598 20.6238 12.1598 20.6238 12.1597C20.6238 12.1596 20.6238 12.1595 20.6239 12.1594C20.6239 12.1594 20.6239 12.1593 20.6239 12.1592C20.6239 12.1591 20.6239 12.1591 20.6239 12.159C20.6239 12.1589 20.6239 12.1588 20.6239 12.1588C20.6239 12.1587 20.6239 12.1586 20.6239 12.1585C20.624 12.1585 20.624 12.1584 20.624 12.1583C20.624 12.1582 20.624 12.1582 20.624 12.1581C20.624 12.158 20.624 12.1579 20.624 12.1578C20.624 12.1578 20.624 12.1577 20.624 12.1576C20.624 12.1575 20.6241 12.1575 20.6241 12.1574C20.6241 12.1573 20.6241 12.1572 20.6241 12.1572C20.6241 12.1571 20.6241 12.157 20.6241 12.1569C20.6241 12.1569 20.6241 12.1568 20.6241 12.1567C20.6241 12.1566 20.6241 12.1565 20.6242 12.1565C20.6242 12.1564 20.6242 12.1563 20.6242 12.1562C20.6242 12.1562 20.6242 12.1561 20.6242 12.156C20.6242 12.1559 20.6242 12.1559 20.6242 12.1558C20.6242 12.1557 20.6242 12.1556 20.6242 12.1556C20.6243 12.1555 20.6243 12.1554 20.6243 12.1553C20.6243 12.1553 20.6243 12.1552 20.6243 12.1551C20.6243 12.155 20.6243 12.1549 20.6243 12.1549C20.6243 12.1548 20.6243 12.1547 20.6243 12.1546C20.6243 12.1546 20.6243 12.1545 20.6244 12.1544C20.6244 12.1543 20.6244 12.1543 20.6244 12.1542C20.6244 12.1541 20.6244 12.154 20.6244 12.154C20.6244 12.1539 20.6244 12.1538 20.6244 12.1537C20.6244 12.1536 20.6244 12.1536 20.6244 12.1535C20.6245 12.1534 20.6245 12.1533 20.6245 12.1533L19.6294 12.0538C19.6294 12.0538 19.6294 12.0539 19.6294 12.054C19.6294 12.0541 19.6294 12.0541 19.6294 12.0542C19.6294 12.0543 19.6294 12.0544 19.6294 12.0545C19.6294 12.0545 19.6294 12.0546 19.6293 12.0547C19.6293 12.0548 19.6293 12.0548 19.6293 12.0549C19.6293 12.055 19.6293 12.0551 19.6293 12.0551C19.6293 12.0552 19.6293 12.0553 19.6293 12.0554C19.6293 12.0554 19.6293 12.0555 19.6293 12.0556C19.6292 12.0557 19.6292 12.0557 19.6292 12.0558C19.6292 12.0559 19.6292 12.056 19.6292 12.0561C19.6292 12.0561 19.6292 12.0562 19.6292 12.0563C19.6292 12.0564 19.6292 12.0564 19.6292 12.0565C19.6292 12.0566 19.6291 12.0567 19.6291 12.0567C19.6291 12.0568 19.6291 12.0569 19.6291 12.057C19.6291 12.057 19.6291 12.0571 19.6291 12.0572C19.6291 12.0573 19.6291 12.0573 19.6291 12.0574C19.6291 12.0575 19.6291 12.0576 19.629 12.0577C19.629 12.0577 19.629 12.0578 19.629 12.0579C19.629 12.058 19.629 12.058 19.629 12.0581C19.629 12.0582 19.629 12.0583 19.629 12.0583C19.629 12.0584 19.629 12.0585 19.629 12.0586C19.6289 12.0586 19.6289 12.0587 19.6289 12.0588C19.6289 12.0589 19.6289 12.059 19.6289 12.059C19.6289 12.0591 19.6289 12.0592 19.6289 12.0593C19.6289 12.0593 19.6289 12.0594 19.6289 12.0595C19.6289 12.0596 19.6288 12.0596 19.6288 12.0597C19.6288 12.0598 19.6288 12.0599 19.6288 12.0599C19.6288 12.06 19.6288 12.0601 19.6288 12.0602C19.6288 12.0602 19.6288 12.0603 19.6288 12.0604C19.6288 12.0605 19.6288 12.0606 19.6287 12.0606C19.6287 12.0607 19.6287 12.0608 19.6287 12.0609C19.6287 12.0609 19.6287 12.061 19.6287 12.0611C19.6287 12.0612 19.6287 12.0612 19.6287 12.0613C19.6287 12.0614 19.6287 12.0615 19.6287 12.0615C19.6286 12.0616 19.6286 12.0617 19.6286 12.0618C19.6286 12.0619 19.6286 12.0619 19.6286 12.062C19.6286 12.0621 19.6286 12.0622 19.6286 12.0622C19.6286 12.0623 19.6286 12.0624 19.6286 12.0625C19.6286 12.0625 19.6285 12.0626 19.6285 12.0627C19.6285 12.0628 19.6285 12.0628 19.6285 12.0629C19.6285 12.063 19.6285 12.0631 19.6285 12.0631C19.6285 12.0632 19.6285 12.0633 19.6285 12.0634C19.6285 12.0635 19.6285 12.0635 19.6285 12.0636C19.6284 12.0637 19.6284 12.0638 19.6284 12.0638C19.6284 12.0639 19.6284 12.064 19.6284 12.0641C19.6284 12.0641 19.6284 12.0642 19.6284 12.0643C19.6284 12.0644 19.6284 12.0644 19.6284 12.0645C19.6284 12.0646 19.6283 12.0647 19.6283 12.0648C19.6283 12.0648 19.6283 12.0649 19.6283 12.065C19.6283 12.0651 19.6283 12.0651 19.6283 12.0652C19.6283 12.0653 19.6283 12.0654 19.6283 12.0654C19.6283 12.0655 19.6283 12.0656 19.6282 12.0657C19.6282 12.0657 19.6282 12.0658 19.6282 12.0659C19.6282 12.066 19.6282 12.066 19.6282 12.0661C19.6282 12.0662 19.6282 12.0663 19.6282 12.0664C19.6282 12.0664 19.6282 12.0665 19.6282 12.0666C19.6281 12.0667 19.6281 12.0667 19.6281 12.0668C19.6281 12.0669 19.6281 12.067 19.6281 12.067C19.6281 12.0671 19.6281 12.0672 19.6281 12.0673C19.6281 12.0673 19.6281 12.0674 19.6281 12.0675C19.6281 12.0676 19.628 12.0676 19.628 12.0677C19.628 12.0678 19.628 12.0679 19.628 12.068C19.628 12.068 19.628 12.0681 19.628 12.0682C19.628 12.0683 19.628 12.0683 19.628 12.0684C19.628 12.0685 19.628 12.0686 19.6279 12.0686C19.6279 12.0687 19.6279 12.0688 19.6279 12.0689C19.6279 12.0689 19.6279 12.069 19.6279 12.0691C19.6279 12.0692 19.6279 12.0693 19.6279 12.0693C19.6279 12.0694 19.6279 12.0695 19.6279 12.0696C19.6278 12.0696 19.6278 12.0697 19.6278 12.0698C19.6278 12.0699 19.6278 12.0699 19.6278 12.07C19.6278 12.0701 19.6278 12.0702 19.6278 12.0702C19.6278 12.0703 19.6278 12.0704 19.6278 12.0705C19.6278 12.0705 19.6277 12.0706 19.6277 12.0707C19.6277 12.0708 19.6277 12.0709 19.6277 12.0709C19.6277 12.071 19.6277 12.0711 19.6277 12.0712C19.6277 12.0712 19.6277 12.0713 19.6277 12.0714C19.6277 12.0715 19.6277 12.0715 19.6276 12.0716C19.6276 12.0717 19.6276 12.0718 19.6276 12.0718C19.6276 12.0719 19.6276 12.072 19.6276 12.0721C19.6276 12.0722 19.6276 12.0722 19.6276 12.0723C19.6276 12.0724 19.6276 12.0725 19.6276 12.0725C19.6276 12.0726 19.6275 12.0727 19.6275 12.0728C19.6275 12.0728 19.6275 12.0729 19.6275 12.073C19.6275 12.0731 19.6275 12.0731 19.6275 12.0732C19.6275 12.0733 19.6275 12.0734 19.6275 12.0734C19.6275 12.0735 19.6275 12.0736 19.6274 12.0737C19.6274 12.0738 19.6274 12.0738 19.6274 12.0739C19.6274 12.074 19.6274 12.0741 19.6274 12.0741C19.6274 12.0742 19.6274 12.0743 19.6274 12.0744C19.6274 12.0744 19.6274 12.0745 19.6274 12.0746C19.6273 12.0747 19.6273 12.0747 19.6273 12.0748C19.6273 12.0749 19.6273 12.075 19.6273 12.075C19.6273 12.0751 19.6273 12.0752 19.6273 12.0753C19.6273 12.0754 19.6273 12.0754 19.6273 12.0755C19.6273 12.0756 19.6272 12.0757 19.6272 12.0757C19.6272 12.0758 19.6272 12.0759 19.6272 12.076C19.6272 12.076 19.6272 12.0761 19.6272 12.0762C19.6272 12.0763 19.6272 12.0763 19.6272 12.0764C19.6272 12.0765 19.6272 12.0766 19.6271 12.0767C19.6271 12.0767 19.6271 12.0768 19.6271 12.0769C19.6271 12.077 19.6271 12.077 19.6271 12.0771C19.6271 12.0772 19.6271 12.0773 19.6271 12.0773C19.6271 12.0774 19.6271 12.0775 19.6271 12.0776C19.627 12.0776 19.627 12.0777 19.627 12.0778C19.627 12.0779 19.627 12.0779 19.627 12.078C19.627 12.0781 19.627 12.0782 19.627 12.0783C19.627 12.0783 19.627 12.0784 19.627 12.0785C19.627 12.0786 19.6269 12.0786 19.6269 12.0787C19.6269 12.0788 19.6269 12.0789 19.6269 12.0789C19.6269 12.079 19.6269 12.0791 19.6269 12.0792C19.6269 12.0792 19.6269 12.0793 19.6269 12.0794C19.6269 12.0795 19.6269 12.0796 19.6268 12.0796C19.6268 12.0797 19.6268 12.0798 19.6268 12.0799C19.6268 12.0799 19.6268 12.08 19.6268 12.0801C19.6268 12.0802 19.6268 12.0802 19.6268 12.0803C19.6268 12.0804 19.6268 12.0805 19.6268 12.0805C19.6267 12.0806 19.6267 12.0807 19.6267 12.0808C19.6267 12.0808 19.6267 12.0809 19.6267 12.081C19.6267 12.0811 19.6267 12.0812 19.6267 12.0812C19.6267 12.0813 19.6267 12.0814 19.6267 12.0815C19.6267 12.0815 19.6266 12.0816 19.6266 12.0817C19.6266 12.0818 19.6266 12.0818 19.6266 12.0819C19.6266 12.082 19.6266 12.0821 19.6266 12.0821C19.6266 12.0822 19.6266 12.0823 19.6266 12.0824C19.6266 12.0825 19.6266 12.0825 19.6266 12.0826C19.6265 12.0827 19.6265 12.0828 19.6265 12.0828C19.6265 12.0829 19.6265 12.083 19.6265 12.0831C19.6265 12.0831 19.6265 12.0832 19.6265 12.0833C19.6265 12.0834 19.6265 12.0834 19.6265 12.0835C19.6265 12.0836 19.6264 12.0837 19.6264 12.0837C19.6264 12.0838 19.6264 12.0839 19.6264 12.084C19.6264 12.0841 19.6264 12.0841 19.6264 12.0842C19.6264 12.0843 19.6264 12.0844 19.6264 12.0844C19.6264 12.0845 19.6264 12.0846 19.6263 12.0847C19.6263 12.0847 19.6263 12.0848 19.6263 12.0849C19.6263 12.085 19.6263 12.085 19.6263 12.0851C19.6263 12.0852 19.6263 12.0853 19.6263 12.0853C19.6263 12.0854 19.6263 12.0855 19.6263 12.0856C19.6262 12.0857 19.6262 12.0857 19.6262 12.0858C19.6262 12.0859 19.6262 12.086 19.6262 12.086C19.6262 12.0861 19.6262 12.0862 19.6262 12.0863C19.6262 12.0863 19.6262 12.0864 19.6262 12.0865C19.6262 12.0866 19.6261 12.0866 19.6261 12.0867C19.6261 12.0868 19.6261 12.0869 19.6261 12.087C19.6261 12.087 19.6261 12.0871 19.6261 12.0872C19.6261 12.0873 19.6261 12.0873 19.6261 12.0874C19.6261 12.0875 19.6261 12.0876 19.626 12.0876C19.626 12.0877 19.626 12.0878 19.626 12.0879C19.626 12.0879 19.626 12.088 19.626 12.0881C19.626 12.0882 19.626 12.0882 19.626 12.0883C19.626 12.0884 19.626 12.0885 19.626 12.0886C19.6259 12.0886 19.6259 12.0887 19.6259 12.0888C19.6259 12.0889 19.6259 12.0889 19.6259 12.089C19.6259 12.0891 19.6259 12.0892 19.6259 12.0892C19.6259 12.0893 19.6259 12.0894 19.6259 12.0895C19.6259 12.0895 19.6258 12.0896 19.6258 12.0897C19.6258 12.0898 19.6258 12.0899 19.6258 12.0899C19.6258 12.09 19.6258 12.0901 19.6258 12.0902C19.6258 12.0902 19.6258 12.0903 19.6258 12.0904C19.6258 12.0905 19.6258 12.0905 19.6257 12.0906C19.6257 12.0907 19.6257 12.0908 19.6257 12.0908C19.6257 12.0909 19.6257 12.091 19.6257 12.0911C19.6257 12.0911 19.6257 12.0912 19.6257 12.0913C19.6257 12.0914 19.6257 12.0915 19.6257 12.0915C19.6257 12.0916 19.6256 12.0917 19.6256 12.0918C19.6256 12.0918 19.6256 12.0919 19.6256 12.092C19.6256 12.0921 19.6256 12.0921 19.6256 12.0922C19.6256 12.0923 19.6256 12.0924 19.6256 12.0924C19.6256 12.0925 19.6256 12.0926 19.6255 12.0927C19.6255 12.0927 19.6255 12.0928 19.6255 12.0929C19.6255 12.093 19.6255 12.0931 19.6255 12.0931C19.6255 12.0932 19.6255 12.0933 19.6255 12.0934C19.6255 12.0934 19.6255 12.0935 19.6255 12.0936C19.6254 12.0937 19.6254 12.0937 19.6254 12.0938C19.6254 12.0939 19.6254 12.094 19.6254 12.094C19.6254 12.0941 19.6254 12.0942 19.6254 12.0943C19.6254 12.0944 19.6254 12.0944 19.6254 12.0945C19.6254 12.0946 19.6253 12.0947 19.6253 12.0947C19.6253 12.0948 19.6253 12.0949 19.6253 12.095C19.6253 12.095 19.6253 12.0951 19.6253 12.0952C19.6253 12.0953 19.6253 12.0953 19.6253 12.0954C19.6253 12.0955 19.6253 12.0956 19.6252 12.0956C19.6252 12.0957 19.6252 12.0958 19.6252 12.0959C19.6252 12.096 19.6252 12.096 19.6252 12.0961C19.6252 12.0962 19.6252 12.0963 19.6252 12.0963C19.6252 12.0964 19.6252 12.0965 19.6252 12.0966C19.6251 12.0966 19.6251 12.0967 19.6251 12.0968C19.6251 12.0969 19.6251 12.0969 19.6251 12.097C19.6251 12.0971 19.6251 12.0972 19.6251 12.0973C19.6251 12.0973 19.6251 12.0974 19.6251 12.0975C19.6251 12.0976 19.625 12.0976 19.625 12.0977C19.625 12.0978 19.625 12.0979 19.625 12.0979C19.625 12.098 19.625 12.0981 19.625 12.0982C19.625 12.0982 19.625 12.0983 19.625 12.0984C19.625 12.0985 19.625 12.0985 19.6249 12.0986C19.6249 12.0987 19.6249 12.0988 19.6249 12.0989C19.6249 12.0989 19.6249 12.099 19.6249 12.0991C19.6249 12.0992 19.6249 12.0992 19.6249 12.0993C19.6249 12.0994 19.6249 12.0995 19.6249 12.0995C19.6248 12.0996 19.6248 12.0997 19.6248 12.0998C19.6248 12.0998 19.6248 12.0999 19.6248 12.1C19.6248 12.1001 19.6248 12.1002 19.6248 12.1002C19.6248 12.1003 19.6248 12.1004 19.6248 12.1005C19.6248 12.1005 19.6248 12.1006 19.6247 12.1007C19.6247 12.1008 19.6247 12.1008 19.6247 12.1009C19.6247 12.101 19.6247 12.1011 19.6247 12.1011C19.6247 12.1012 19.6247 12.1013 19.6247 12.1014C19.6247 12.1014 19.6247 12.1015 19.6247 12.1016C19.6246 12.1017 19.6246 12.1018 19.6246 12.1018C19.6246 12.1019 19.6246 12.102 19.6246 12.1021C19.6246 12.1021 19.6246 12.1022 19.6246 12.1023C19.6246 12.1024 19.6246 12.1024 19.6246 12.1025C19.6246 12.1026 19.6245 12.1027 19.6245 12.1027C19.6245 12.1028 19.6245 12.1029 19.6245 12.103C19.6245 12.103 19.6245 12.1031 19.6245 12.1032C19.6245 12.1033 19.6245 12.1034 19.6245 12.1034C19.6245 12.1035 19.6245 12.1036 19.6244 12.1037C19.6244 12.1037 19.6244 12.1038 19.6244 12.1039C19.6244 12.104 19.6244 12.104 19.6244 12.1041C19.6244 12.1042 19.6244 12.1043 19.6244 12.1043C19.6244 12.1044 19.6244 12.1045 19.6244 12.1046C19.6243 12.1047 19.6243 12.1047 19.6243 12.1048C19.6243 12.1049 19.6243 12.105 19.6243 12.105C19.6243 12.1051 19.6243 12.1052 19.6243 12.1053C19.6243 12.1053 19.6243 12.1054 19.6243 12.1055C19.6243 12.1056 19.6242 12.1056 19.6242 12.1057C19.6242 12.1058 19.6242 12.1059 19.6242 12.1059C19.6242 12.106 19.6242 12.1061 19.6242 12.1062C19.6242 12.1063 19.6242 12.1063 19.6242 12.1064C19.6242 12.1065 19.6242 12.1066 19.6241 12.1066C19.6241 12.1067 19.6241 12.1068 19.6241 12.1069C19.6241 12.1069 19.6241 12.107 19.6241 12.1071C19.6241 12.1072 19.6241 12.1072 19.6241 12.1073C19.6241 12.1074 19.6241 12.1075 19.6241 12.1076C19.624 12.1076 19.624 12.1077 19.624 12.1078C19.624 12.1079 19.624 12.1079 19.624 12.108C19.624 12.1081 19.624 12.1082 19.624 12.1082C19.624 12.1083 19.624 12.1084 19.624 12.1085C19.624 12.1085 19.6239 12.1086 19.6239 12.1087C19.6239 12.1088 19.6239 12.1088 19.6239 12.1089C19.6239 12.109 19.6239 12.1091 19.6239 12.1092C19.6239 12.1092 19.6239 12.1093 19.6239 12.1094C19.6239 12.1095 19.6239 12.1095 19.6238 12.1096C19.6238 12.1097 19.6238 12.1098 19.6238 12.1098C19.6238 12.1099 19.6238 12.11 19.6238 12.1101C19.6238 12.1101 19.6238 12.1102 19.6238 12.1103C19.6238 12.1104 19.6238 12.1105 19.6238 12.1105C19.6238 12.1106 19.6237 12.1107 19.6237 12.1108C19.6237 12.1108 19.6237 12.1109 19.6237 12.111C19.6237 12.1111 19.6237 12.1111 19.6237 12.1112C19.6237 12.1113 19.6237 12.1114 19.6237 12.1114C19.6237 12.1115 19.6237 12.1116 19.6236 12.1117C19.6236 12.1117 19.6236 12.1118 19.6236 12.1119C19.6236 12.112 19.6236 12.1121 19.6236 12.1121C19.6236 12.1122 19.6236 12.1123 19.6236 12.1124C19.6236 12.1124 19.6236 12.1125 19.6236 12.1126C19.6235 12.1127 19.6235 12.1127 19.6235 12.1128C19.6235 12.1129 19.6235 12.113 19.6235 12.113C19.6235 12.1131 19.6235 12.1132 19.6235 12.1133C19.6235 12.1133 19.6235 12.1134 19.6235 12.1135C19.6235 12.1136 19.6234 12.1137 19.6234 12.1137C19.6234 12.1138 19.6234 12.1139 19.6234 12.114C19.6234 12.114 19.6234 12.1141 19.6234 12.1142C19.6234 12.1143 19.6234 12.1143 19.6234 12.1144C19.6234 12.1145 19.6234 12.1146 19.6233 12.1146C19.6233 12.1147 19.6233 12.1148 19.6233 12.1149C19.6233 12.115 19.6233 12.115 19.6233 12.1151C19.6233 12.1152 19.6233 12.1153 19.6233 12.1153C19.6233 12.1154 19.6233 12.1155 19.6233 12.1156C19.6232 12.1156 19.6232 12.1157 19.6232 12.1158C19.6232 12.1159 19.6232 12.1159 19.6232 12.116C19.6232 12.1161 19.6232 12.1162 19.6232 12.1162C19.6232 12.1163 19.6232 12.1164 19.6232 12.1165C19.6232 12.1166 19.6231 12.1166 19.6231 12.1167C19.6231 12.1168 19.6231 12.1169 19.6231 12.1169C19.6231 12.117 19.6231 12.1171 19.6231 12.1172C19.6231 12.1172 19.6231 12.1173 19.6231 12.1174C19.6231 12.1175 19.6231 12.1175 19.623 12.1176C19.623 12.1177 19.623 12.1178 19.623 12.1179C19.623 12.1179 19.623 12.118 19.623 12.1181C19.623 12.1182 19.623 12.1182 19.623 12.1183C19.623 12.1184 19.623 12.1185 19.623 12.1185C19.6229 12.1186 19.6229 12.1187 19.6229 12.1188C19.6229 12.1188 19.6229 12.1189 19.6229 12.119C19.6229 12.1191 19.6229 12.1191 19.6229 12.1192C19.6229 12.1193 19.6229 12.1194 19.6229 12.1195C19.6229 12.1195 19.6229 12.1196 19.6228 12.1197C19.6228 12.1198 19.6228 12.1198 19.6228 12.1199C19.6228 12.12 19.6228 12.1201 19.6228 12.1201C19.6228 12.1202 19.6228 12.1203 19.6228 12.1204C19.6228 12.1204 19.6228 12.1205 19.6228 12.1206C19.6227 12.1207 19.6227 12.1207 19.6227 12.1208C19.6227 12.1209 19.6227 12.121 19.6227 12.1211C19.6227 12.1211 19.6227 12.1212 19.6227 12.1213C19.6227 12.1214 19.6227 12.1214 19.6227 12.1215C19.6227 12.1216 19.6226 12.1217 19.6226 12.1217C19.6226 12.1218 19.6226 12.1219 19.6226 12.122C19.6226 12.122 19.6226 12.1221 19.6226 12.1222C19.6226 12.1223 19.6226 12.1224 19.6226 12.1224C19.6226 12.1225 19.6226 12.1226 19.6225 12.1227C19.6225 12.1227 19.6225 12.1228 19.6225 12.1229C19.6225 12.123 19.6225 12.123 19.6225 12.1231C19.6225 12.1232 19.6225 12.1233 19.6225 12.1233C19.6225 12.1234 19.6225 12.1235 19.6225 12.1236C19.6224 12.1236 19.6224 12.1237 19.6224 12.1238C19.6224 12.1239 19.6224 12.124 19.6224 12.124C19.6224 12.1241 19.6224 12.1242 19.6224 12.1243C19.6224 12.1243 19.6224 12.1244 19.6224 12.1245C19.6224 12.1246 19.6223 12.1246 19.6223 12.1247C19.6223 12.1248 19.6223 12.1249 19.6223 12.1249C19.6223 12.125 19.6223 12.1251 19.6223 12.1252C19.6223 12.1253 19.6223 12.1253 19.6223 12.1254C19.6223 12.1255 19.6223 12.1256 19.6222 12.1256C19.6222 12.1257 19.6222 12.1258 19.6222 12.1259C19.6222 12.1259 19.6222 12.126 19.6222 12.1261C19.6222 12.1262 19.6222 12.1262 19.6222 12.1263C19.6222 12.1264 19.6222 12.1265 19.6222 12.1265C19.6221 12.1266 19.6221 12.1267 19.6221 12.1268C19.6221 12.1269 19.6221 12.1269 19.6221 12.127C19.6221 12.1271 19.6221 12.1272 19.6221 12.1272C19.6221 12.1273 19.6221 12.1274 19.6221 12.1275C19.6221 12.1275 19.622 12.1276 19.622 12.1277C19.622 12.1278 19.622 12.1278 19.622 12.1279C19.622 12.128 19.622 12.1281 19.622 12.1282C19.622 12.1282 19.622 12.1283 19.622 12.1284C19.622 12.1285 19.622 12.1285 19.622 12.1286C19.6219 12.1287 19.6219 12.1288 19.6219 12.1288C19.6219 12.1289 19.6219 12.129 19.6219 12.1291C19.6219 12.1291 19.6219 12.1292 19.6219 12.1293C19.6219 12.1294 19.6219 12.1294 19.6219 12.1295C19.6219 12.1296 19.6218 12.1297 19.6218 12.1298C19.6218 12.1298 19.6218 12.1299 19.6218 12.13C19.6218 12.1301 19.6218 12.1301 19.6218 12.1302C19.6218 12.1303 19.6218 12.1304 19.6218 12.1304C19.6218 12.1305 19.6218 12.1306 19.6217 12.1307C19.6217 12.1307 19.6217 12.1308 19.6217 12.1309C19.6217 12.131 19.6217 12.131 19.6217 12.1311C19.6217 12.1312 19.6217 12.1313 19.6217 12.1314C19.6217 12.1314 19.6217 12.1315 19.6217 12.1316C19.6216 12.1317 19.6216 12.1317 19.6216 12.1318C19.6216 12.1319 19.6216 12.132 19.6216 12.132C19.6216 12.1321 19.6216 12.1322 19.6216 12.1323C19.6216 12.1323 19.6216 12.1324 19.6216 12.1325C19.6216 12.1326 19.6215 12.1327 19.6215 12.1327C19.6215 12.1328 19.6215 12.1329 19.6215 12.133C19.6215 12.133 19.6215 12.1331 19.6215 12.1332C19.6215 12.1333 19.6215 12.1333 19.6215 12.1334C19.6215 12.1335 19.6215 12.1336 19.6214 12.1336C19.6214 12.1337 19.6214 12.1338 19.6214 12.1339C19.6214 12.1339 19.6214 12.134 19.6214 12.1341C19.6214 12.1342 19.6214 12.1343 19.6214 12.1343C19.6214 12.1344 19.6214 12.1345 19.6214 12.1346C19.6213 12.1346 19.6213 12.1347 19.6213 12.1348C19.6213 12.1349 19.6213 12.1349 19.6213 12.135C19.6213 12.1351 19.6213 12.1352 19.6213 12.1352C19.6213 12.1353 19.6213 12.1354 19.6213 12.1355C19.6213 12.1356 19.6212 12.1356 19.6212 12.1357C19.6212 12.1358 19.6212 12.1359 19.6212 12.1359C19.6212 12.136 19.6212 12.1361 19.6212 12.1362C19.6212 12.1362 19.6212 12.1363 19.6212 12.1364C19.6212 12.1365 19.6212 12.1365 19.6211 12.1366C19.6211 12.1367 19.6211 12.1368 19.6211 12.1368C19.6211 12.1369 19.6211 12.137 19.6211 12.1371C19.6211 12.1372 19.6211 12.1372 19.6211 12.1373C19.6211 12.1374 19.6211 12.1375 19.6211 12.1375C19.621 12.1376 19.621 12.1377 19.621 12.1378C19.621 12.1378 19.621 12.1379 19.621 12.138C19.621 12.1381 19.621 12.1381 19.621 12.1382C19.621 12.1383 19.621 12.1384 19.621 12.1385C19.621 12.1385 19.621 12.1386 19.6209 12.1387C19.6209 12.1388 19.6209 12.1388 19.6209 12.1389C19.6209 12.139 19.6209 12.1391 19.6209 12.1391C19.6209 12.1392 19.6209 12.1393 19.6209 12.1394C19.6209 12.1394 19.6209 12.1395 19.6209 12.1396C19.6208 12.1397 19.6208 12.1397 19.6208 12.1398C19.6208 12.1399 19.6208 12.14 19.6208 12.1401C19.6208 12.1401 19.6208 12.1402 19.6208 12.1403C19.6208 12.1404 19.6208 12.1404 19.6208 12.1405C19.6208 12.1406 19.6207 12.1407 19.6207 12.1407C19.6207 12.1408 19.6207 12.1409 19.6207 12.141C19.6207 12.141 19.6207 12.1411 19.6207 12.1412C19.6207 12.1413 19.6207 12.1413 19.6207 12.1414C19.6207 12.1415 19.6207 12.1416 19.6206 12.1417C19.6206 12.1417 19.6206 12.1418 19.6206 12.1419C19.6206 12.142 19.6206 12.142 19.6206 12.1421C19.6206 12.1422 19.6206 12.1423 19.6206 12.1423C19.6206 12.1424 19.6206 12.1425 19.6206 12.1426C19.6205 12.1426 19.6205 12.1427 19.6205 12.1428C19.6205 12.1429 19.6205 12.143 19.6205 12.143C19.6205 12.1431 19.6205 12.1432 19.6205 12.1433C19.6205 12.1433 19.6205 12.1434 19.6205 12.1435C19.6205 12.1436 19.6204 12.1436 19.6204 12.1437C19.6204 12.1438 19.6204 12.1439 19.6204 12.1439C19.6204 12.144 19.6204 12.1441 19.6204 12.1442C19.6204 12.1442 19.6204 12.1443 19.6204 12.1444C19.6204 12.1445 19.6204 12.1446 19.6203 12.1446C19.6203 12.1447 19.6203 12.1448 19.6203 12.1449C19.6203 12.1449 19.6203 12.145 19.6203 12.1451C19.6203 12.1452 19.6203 12.1452 19.6203 12.1453C19.6203 12.1454 19.6203 12.1455 19.6203 12.1455C19.6202 12.1456 19.6202 12.1457 19.6202 12.1458C19.6202 12.1459 19.6202 12.1459 19.6202 12.146C19.6202 12.1461 19.6202 12.1462 19.6202 12.1462C19.6202 12.1463 19.6202 12.1464 19.6202 12.1465C19.6202 12.1465 19.6201 12.1466 19.6201 12.1467C19.6201 12.1468 19.6201 12.1468 19.6201 12.1469C19.6201 12.147 19.6201 12.1471 19.6201 12.1471C19.6201 12.1472 19.6201 12.1473 19.6201 12.1474C19.6201 12.1475 19.6201 12.1475 19.6201 12.1476C19.62 12.1477 19.62 12.1478 19.62 12.1478C19.62 12.1479 19.62 12.148 19.62 12.1481C19.62 12.1481 19.62 12.1482 19.62 12.1483C19.62 12.1484 19.62 12.1484 19.62 12.1485C19.62 12.1486 19.6199 12.1487 19.6199 12.1487C19.6199 12.1488 19.6199 12.1489 19.6199 12.149C19.6199 12.1491 19.6199 12.1491 19.6199 12.1492C19.6199 12.1493 19.6199 12.1494 19.6199 12.1494C19.6199 12.1495 19.6199 12.1496 19.6198 12.1497C19.6198 12.1497 19.6198 12.1498 19.6198 12.1499C19.6198 12.15 19.6198 12.15 19.6198 12.1501C19.6198 12.1502 19.6198 12.1503 19.6198 12.1504C19.6198 12.1504 19.6198 12.1505 19.6198 12.1506C19.6197 12.1507 19.6197 12.1507 19.6197 12.1508C19.6197 12.1509 19.6197 12.151 19.6197 12.151C19.6197 12.1511 19.6197 12.1512 19.6197 12.1513C19.6197 12.1513 19.6197 12.1514 19.6197 12.1515C19.6197 12.1516 19.6196 12.1516 19.6196 12.1517C19.6196 12.1518 19.6196 12.1519 19.6196 12.152C19.6196 12.152 19.6196 12.1521 19.6196 12.1522C19.6196 12.1523 19.6196 12.1523 19.6196 12.1524C19.6196 12.1525 19.6196 12.1526 19.6195 12.1526C19.6195 12.1527 19.6195 12.1528 19.6195 12.1529C19.6195 12.1529 19.6195 12.153 19.6195 12.1531C19.6195 12.1532 19.6195 12.1533 19.6195 12.1533C19.6195 12.1534 19.6195 12.1535 19.6195 12.1536C19.6194 12.1536 19.6194 12.1537 19.6194 12.1538C19.6194 12.1539 19.6194 12.1539 19.6194 12.154C19.6194 12.1541 19.6194 12.1542 19.6194 12.1542C19.6194 12.1543 19.6194 12.1544 19.6194 12.1545C19.6194 12.1545 19.6193 12.1546 19.6193 12.1547C19.6193 12.1548 19.6193 12.1549 19.6193 12.1549C19.6193 12.155 19.6193 12.1551 19.6193 12.1552C19.6193 12.1552 19.6193 12.1553 19.6193 12.1554C19.6193 12.1555 19.6193 12.1555 19.6192 12.1556C19.6192 12.1557 19.6192 12.1558 19.6192 12.1558C19.6192 12.1559 19.6192 12.156 19.6192 12.1561C19.6192 12.1562 19.6192 12.1562 19.6192 12.1563C19.6192 12.1564 19.6192 12.1565 19.6192 12.1565C19.6192 12.1566 19.6191 12.1567 19.6191 12.1568C19.6191 12.1568 19.6191 12.1569 19.6191 12.157C19.6191 12.1571 19.6191 12.1571 19.6191 12.1572C19.6191 12.1573 19.6191 12.1574 19.6191 12.1574C19.6191 12.1575 19.6191 12.1576 19.619 12.1577C19.619 12.1578 19.619 12.1578 19.619 12.1579C19.619 12.158 19.619 12.1581 19.619 12.1581C19.619 12.1582 19.619 12.1583 19.619 12.1584C19.619 12.1584 19.619 12.1585 19.619 12.1586C19.6189 12.1587 19.6189 12.1587 19.6189 12.1588C19.6189 12.1589 19.6189 12.159 19.6189 12.159C19.6189 12.1591 19.6189 12.1592 19.6189 12.1593C19.6189 12.1594 19.6189 12.1594 19.6189 12.1595C19.6189 12.1596 19.6188 12.1597 19.6188 12.1597C19.6188 12.1598 19.6188 12.1599 19.6188 12.16C19.6188 12.16 19.6188 12.1601 19.6188 12.1602C19.6188 12.1603 19.6188 12.1603 19.6188 12.1604C19.6188 12.1605 19.6188 12.1606 19.6187 12.1607C19.6187 12.1607 19.6187 12.1608 19.6187 12.1609C19.6187 12.161 19.6187 12.161 19.6187 12.1611C19.6187 12.1612 19.6187 12.1613 19.6187 12.1613C19.6187 12.1614 19.6187 12.1615 19.6187 12.1616C19.6186 12.1616 19.6186 12.1617 19.6186 12.1618C19.6186 12.1619 19.6186 12.1619 19.6186 12.162C19.6186 12.1621 19.6186 12.1622 19.6186 12.1623C19.6186 12.1623 19.6186 12.1624 19.6186 12.1625C19.6186 12.1626 19.6185 12.1626 19.6185 12.1627C19.6185 12.1628 19.6185 12.1629 19.6185 12.1629C19.6185 12.163 19.6185 12.1631 19.6185 12.1632C19.6185 12.1632 19.6185 12.1633 19.6185 12.1634C19.6185 12.1635 19.6185 12.1636 19.6184 12.1636C19.6184 12.1637 19.6184 12.1638 19.6184 12.1639C19.6184 12.1639 19.6184 12.164 19.6184 12.1641C19.6184 12.1642 19.6184 12.1642 19.6184 12.1643C19.6184 12.1644 19.6184 12.1645 19.6184 12.1645C19.6183 12.1646 19.6183 12.1647 19.6183 12.1648C19.6183 12.1648 19.6183 12.1649 19.6183 12.165C19.6183 12.1651 19.6183 12.1652 19.6183 12.1652C19.6183 12.1653 19.6183 12.1654 19.6183 12.1655C19.6183 12.1655 19.6182 12.1656 19.6182 12.1657C19.6182 12.1658 19.6182 12.1658 19.6182 12.1659C19.6182 12.166 19.6182 12.1661 19.6182 12.1661C19.6182 12.1662 19.6182 12.1663 19.6182 12.1664C19.6182 12.1664 19.6182 12.1665 19.6182 12.1666C19.6181 12.1667 19.6181 12.1668 19.6181 12.1668C19.6181 12.1669 19.6181 12.167 19.6181 12.1671C19.6181 12.1671 19.6181 12.1672 19.6181 12.1673C19.6181 12.1674 19.6181 12.1674 19.6181 12.1675C19.6181 12.1676 19.618 12.1677 19.618 12.1677C19.618 12.1678 19.618 12.1679 19.618 12.168C19.618 12.1681 19.618 12.1681 19.618 12.1682C19.618 12.1683 19.618 12.1684 19.618 12.1684C19.618 12.1685 19.618 12.1686 19.6179 12.1687C19.6179 12.1687 19.6179 12.1688 19.6179 12.1689C19.6179 12.169 19.6179 12.169 19.6179 12.1691C19.6179 12.1692 19.6179 12.1693 19.6179 12.1693C19.6179 12.1694 19.6179 12.1695 19.6179 12.1696C19.6178 12.1697 19.6178 12.1697 19.6178 12.1698C19.6178 12.1699 19.6178 12.17 19.6178 12.17C19.6178 12.1701 19.6178 12.1702 19.6178 12.1703C19.6178 12.1703 19.6178 12.1704 19.6178 12.1705C19.6178 12.1706 19.6177 12.1706 19.6177 12.1707C19.6177 12.1708 19.6177 12.1709 19.6177 12.171L20.6128 12.2705ZM20.6249 12.1488C20.6287 12.1072 20.6324 12.0677 20.6362 12.0302L19.6412 11.9307C19.6371 11.9714 19.633 12.0139 19.629 12.0582L20.6249 12.1488Z" fill="#F5A525"/>
</svg>
